<?xml version="1.0" encoding="utf-8"?>
<!-- Generator: Adobe Illustrator 24.0.2, SVG Export Plug-In . SVG Version: 6.00 Build 0)  -->
<svg version="1.1" id="Laag_1" xmlns="http://www.w3.org/2000/svg" xmlns:xlink="http://www.w3.org/1999/xlink" x="0px" y="0px"
	 viewBox="0 0 749.9 166.3" style="enable-background:new 0 0 749.9 166.3;" xml:space="preserve">
<style type="text/css">
	.st0{fill:none;stroke:#010202;stroke-width:2;stroke-miterlimit:10;}
	.st1{fill:#951B81;}
	.st2{fill:#36A9E1;}
	.st3{fill:#95C11F;}
	.st4{fill:#29235C;}
	.st5{fill:#E94E1B;}
	.st6{fill:#F9B233;}
	.st7{fill:none;stroke:#36A9E1;stroke-width:2;stroke-miterlimit:10;}
</style>
<g>
	<path class="st0" d="M14.3,90.7c0,0-11-56-7-67c0-1,30-10,73-7c0-1,130-3,130-3s190-9,207,1c1-1,73-1,73-1s52-5,62-4c1,2,86,1,86,1
		h96c0,0-3,2,0,25c1,2,9,94,9,94s-40,15-60,7c2,1-86,0-86,0s-17-8-27-6s-35,5-35,5s-49-3-66,9c0,0-85,4-89,3s-155,7-155,7
		s-47,10-77,0c1,2-88,0-88,0s-41-4-42,1C18.3,158.7,14.3,90.7,14.3,90.7z"/>
	<path class="st0" d="M14.3,90.7c0,0,122-11,134-10s101-9,114-1c13,8,91,2,91,2l63-2l88-4l52-1l37,4c0,0-2,39,0,49s2,10,2,10"/>
</g>
<g>
	<path class="st1" d="M176.1,57.8c0.3,0,0.5,0.3,0.6,1c0.1,0.7,0.2,1.4,0.1,2.2c0,0.8-0.2,1.5-0.4,2.2c-0.2,0.7-0.5,1-0.8,1
		c-0.7,0-1.7,0-2.8,0.1c-1.1,0.1-2.3,0.2-3.6,0.3c-1.3,0.1-2.5,0.2-3.8,0.3c-1.3,0.1-2.5,0.2-3.7,0.3c-1.1,0.1-2.1,0.1-3,0.2
		c-0.8,0-1.4,0-1.8-0.1c-0.1,0-0.2-0.4-0.3-1.2c-0.1-0.9-0.2-2-0.4-3.5c-0.1-1.5-0.2-3.1-0.4-5c-0.1-1.9-0.3-3.9-0.4-5.9
		c-0.1-2-0.2-4.1-0.3-6.1c-0.1-2-0.2-3.9-0.3-5.6c-0.6,0.1-1.1,0.2-1.5,0.3c-0.4,0.1-0.8,0.2-1.1,0.2c-0.4,0.1-0.7,0.1-1,0.2
		c-0.2-0.1-0.4-0.5-0.6-1.2c-0.2-0.7-0.3-1.4-0.5-2.2c-0.1-0.8-0.2-1.5-0.2-2.3c0-0.7,0.1-1.2,0.2-1.4c0.1-0.1,0.7-0.4,2-0.8
		c1.2-0.4,2.8-0.8,4.7-1.3c1.9-0.5,3.9-0.9,6.1-1.4c2.2-0.5,4.2-0.9,6.1-1.3c1.9-0.4,3.5-0.6,4.8-0.8c1.3-0.2,2-0.2,2.2,0
		c0.2,0.2,0.3,0.8,0.3,1.6c0,0.8-0.1,1.7-0.2,2.6c-0.1,0.9-0.2,1.8-0.4,2.5c-0.2,0.8-0.4,1.2-0.5,1.3c-0.1,0.1-0.5,0.2-1.2,0.3
		c-0.7,0.1-1.6,0.3-2.7,0.5c-1.1,0.2-2.3,0.5-3.7,0.7c-1.4,0.3-2.8,0.5-4.2,0.8c-0.1,1.1-0.2,2.3-0.3,3.6c-0.1,1.3-0.2,2.6-0.3,3.9
		c0.7,0,1.5,0,2.4,0c0.8,0,1.6,0,2.4,0.1c0.7,0,1.4,0.1,1.9,0.1c0.5,0.1,0.8,0.1,0.9,0.1c0.2,0.1,0.3,0.4,0.3,0.9c0,0.5,0,1.1,0,1.7
		c0,0.6-0.1,1.2-0.2,1.7c-0.1,0.5-0.1,0.9-0.2,1c0,0.1-0.3,0.2-0.8,0.3c-0.5,0.1-1.2,0.1-2,0.2c-0.8,0.1-1.7,0.2-2.6,0.2
		c-0.9,0.1-1.8,0.1-2.6,0.1c-0.1,1.9-0.2,3.6-0.3,5.2c-0.1,1.6-0.1,3-0.2,4.1c0.8-0.1,1.7-0.3,2.8-0.5c1.1-0.2,2.2-0.4,3.4-0.5
		c1.2-0.2,2.5-0.3,3.8-0.5C173.3,57.9,174.7,57.8,176.1,57.8z"/>
	<path class="st1" d="M196.6,43.8c0.4,0.9,0.5,1.9,0.5,2.9c0,1-0.1,1.9-0.2,2.7c-0.2,0.9-0.4,1.9-0.7,2.8l-8,2.1
		c0.2,0.7,0.5,1.3,0.9,1.8c0.4,0.5,0.8,1,1.4,1.3c0.5,0.3,1.2,0.5,1.9,0.5c0.7,0,1.5-0.1,2.4-0.4c0.2-0.1,0.4,0,0.6,0.3
		c0.2,0.3,0.4,0.6,0.5,1c0.1,0.4,0.2,0.8,0.2,1.2c0,0.4-0.1,0.6-0.2,0.8c-1.8,1.3-3.6,2-5.4,2.2s-3.4,0-4.8-0.6
		c-1.4-0.6-2.6-1.6-3.6-2.8c-0.9-1.3-1.5-2.8-1.6-4.5c-0.2-2.1,0-4.1,0.6-5.9c0.5-1.9,1.3-3.5,2.3-4.9c1-1.4,2.1-2.6,3.3-3.4
		c1.3-0.9,2.5-1.4,3.8-1.5c1.2-0.1,2.4,0.2,3.5,0.9C195,40.8,195.9,42.1,196.6,43.8z M192.5,49.1c0.2-0.9,0.3-1.7,0.3-2.5
		c0-0.6-0.1-1.2-0.3-1.7c-0.2-0.5-0.6-0.8-1.1-0.7c-0.5,0.1-1,0.3-1.5,0.6c-0.4,0.4-0.8,0.8-1.1,1.4c-0.3,0.6-0.5,1.2-0.7,1.9
		c-0.2,0.7-0.3,1.5-0.3,2.2L192.5,49.1z"/>
	<path class="st1" d="M213.2,34.9c1.3,0,2.3,0.5,3.1,1.5c0.7,1,1.3,2.4,1.7,4c0.4,1.6,0.6,3.4,0.7,5.4c0.1,2,0.1,3.9,0,5.8
		c-0.1,1.9-0.2,3.6-0.3,5.1c-0.1,1.6-0.2,2.7-0.2,3.5c0,0.3-0.3,0.5-0.8,0.7c-0.5,0.2-1.1,0.2-1.7,0.3c-0.6,0-1.2,0-1.8-0.1
		c-0.5-0.1-0.8-0.3-0.9-0.5c-0.1-0.6-0.2-1.4-0.2-2.4c-0.1-1-0.1-2.1-0.2-3.2c-0.1-1.1-0.1-2.3-0.2-3.4c-0.1-1.1-0.2-2.2-0.3-3.1
		c-0.2-0.9-0.4-1.7-0.6-2.3c-0.3-0.6-0.6-0.9-1-0.9c-0.5,0-1,0.2-1.5,0.7c-0.5,0.5-0.9,1.2-1.3,2c-0.4,0.8-0.8,1.8-1.1,2.8
		c-0.3,1-0.6,2.1-0.9,3.2c-0.1,1.7-0.2,3.3-0.3,4.8c-0.1,1.5-0.1,2.8-0.2,3.9c0,0.4-0.3,0.6-0.9,0.7c-0.6,0.1-1.2,0.2-1.9,0.1
		c-0.7,0-1.3-0.1-1.9-0.3c-0.6-0.2-0.9-0.3-0.9-0.6c0-1.3,0-2.8,0-4.4c0-1.6,0-3.3-0.1-5c0-1.7,0-3.4-0.1-5.2c0-1.8,0-3.4-0.1-5.1
		c0-1.6,0-3.1-0.1-4.5c0-1.4,0-2.6,0-3.7c0-0.2,0.2-0.3,0.6-0.5c0.4-0.2,0.9-0.3,1.5-0.4c0.6-0.1,1.3-0.2,2-0.2c0.7-0.1,1.4-0.1,2,0
		c0.6,0,1.1,0.1,1.5,0.2s0.6,0.3,0.6,0.5c-0.1,0.7-0.2,1.4-0.3,2.2c-0.1,0.8-0.2,1.6-0.3,2.5c0.9-1.2,1.8-2.2,2.8-3
		S212,34.9,213.2,34.9z"/>
	<path class="st2" d="M244.3,29.8c0-0.3,0.2-0.6,0.5-0.8c0.4-0.2,0.8-0.4,1.3-0.5c0.5-0.1,1.1-0.2,1.8-0.2c0.6,0,1.2,0,1.8,0.1
		c0.5,0.1,1,0.2,1.3,0.4c0.4,0.2,0.5,0.4,0.5,0.7c-0.1,1-0.1,2.3-0.2,4c-0.1,1.7-0.2,3.6-0.2,5.6c-0.1,2-0.1,4.2-0.2,6.4
		c-0.1,2.2-0.1,4.4-0.2,6.5c-0.1,2.1-0.1,3.9-0.1,5.6c0,1.7-0.1,3-0.1,4c0,0.3-0.3,0.6-0.8,0.8c-0.6,0.2-1.2,0.4-1.9,0.4
		c-0.7,0.1-1.3,0-1.9-0.1s-0.8-0.3-0.8-0.7c0-0.7,0-1.5,0-2.4c0-0.9,0-1.9-0.1-3c-0.4,0.8-0.8,1.6-1.3,2.4c-0.5,0.8-1,1.4-1.7,1.9
		c-0.6,0.5-1.3,0.9-2,1.2c-0.7,0.2-1.6,0.3-2.5,0.1c-0.8-0.2-1.6-0.6-2.4-1.3c-0.8-0.7-1.4-1.5-1.8-2.6c-0.5-1-0.8-2.3-0.9-3.6
		c-0.1-1.4,0-2.9,0.4-4.5s0.9-3.1,1.5-4.4c0.6-1.3,1.3-2.3,2-3.2c0.8-0.8,1.6-1.4,2.6-1.7c0.9-0.3,2-0.3,3.1-0.1
		c0.6,0.2,1.1,0.4,1.5,0.7c0.4,0.3,0.8,0.7,1.2,1.2c-0.1-2.5-0.1-4.9-0.2-7.2C244.5,33.4,244.4,31.5,244.3,29.8z M239.3,57.8
		c0.5,0.2,0.9,0.1,1.3-0.4s0.7-1,1-1.6c0.3-0.7,0.5-1.5,0.6-2.3c0.2-0.9,0.2-1.7,0.2-2.5c0-0.8-0.1-1.4-0.3-2
		c-0.2-0.5-0.4-0.9-0.8-1c-0.5-0.1-0.9,0-1.3,0.4c-0.4,0.4-0.8,0.9-1.1,1.6c-0.3,0.7-0.6,1.4-0.8,2.3c-0.2,0.8-0.3,1.6-0.3,2.4
		c0,0.8,0.1,1.4,0.3,2C238.5,57.3,238.9,57.7,239.3,57.8z"/>
	<path class="st2" d="M270.8,42.6c0,0.6,0,1.4-0.1,2.3c0,0.9-0.1,2-0.1,3.2c-0.1,1.2-0.1,2.4-0.2,3.7c-0.1,1.3-0.2,2.5-0.3,3.8
		c-0.1,1.2-0.2,2.4-0.3,3.5c-0.1,1.1-0.2,2.1-0.3,3c0,0.4-0.3,0.6-0.9,0.8c-0.5,0.2-1.1,0.3-1.8,0.3c-0.6,0-1.2-0.1-1.7-0.2
		c-0.5-0.2-0.8-0.4-0.8-0.7c0-1,0.1-2.2,0.2-3.7c-0.4,0.6-0.8,1.2-1.2,1.8c-0.4,0.6-0.9,1.1-1.4,1.5c-0.5,0.4-1.1,0.7-1.6,0.9
		c-0.6,0.2-1.2,0.2-1.8,0.1c-0.9-0.2-1.7-0.5-2.3-1.1c-0.6-0.6-1.1-1.3-1.3-2.2c-0.3-0.9-0.4-1.9-0.5-3.1c0-1.2,0.1-2.4,0.4-3.8
		c0.2-1.3,0.6-2.5,1.2-3.5c0.6-1,1.2-1.8,2-2.5c0.7-0.6,1.5-1.1,2.3-1.3c0.8-0.2,1.5-0.3,2.3-0.2c0.9,0.1,1.6,0.5,2.2,1.2
		c-0.1-0.9-0.3-1.7-0.6-2.3c-0.3-0.6-0.8-1-1.4-1.2c-0.6-0.2-1.5-0.2-2.5,0c-1,0.2-2.2,0.6-3.7,1.3c-0.4,0.2-0.7,0-1-0.5
		s-0.5-1.1-0.6-1.8c-0.1-0.7-0.1-1.4,0-2.1c0.1-0.7,0.3-1.1,0.7-1.3c0.4-0.2,0.9-0.5,1.3-0.7c0.4-0.2,0.9-0.5,1.5-0.7
		c0.6-0.2,1.2-0.4,2-0.5c0.8-0.1,1.7-0.2,2.8-0.3c1.1,0,2.1,0.1,3,0.4c0.9,0.3,1.7,0.8,2.4,1.4c0.7,0.6,1.2,1.3,1.5,2.1
		C270.7,40.8,270.8,41.7,270.8,42.6z M260.6,57.2c0.3,0.1,0.6-0.1,0.9-0.5c0.3-0.4,0.6-0.8,0.9-1.4c0.3-0.6,0.5-1.2,0.7-1.9
		c0.2-0.7,0.3-1.4,0.3-2c0-0.6,0-1.1-0.2-1.5c-0.2-0.4-0.5-0.7-0.9-0.7c-0.4,0-0.8,0.1-1.1,0.5c-0.3,0.4-0.6,0.8-0.9,1.4
		c-0.3,0.6-0.5,1.2-0.6,1.9c-0.2,0.7-0.2,1.3-0.2,1.9c0,0.6,0.1,1.1,0.3,1.6C259.9,56.9,260.2,57.2,260.6,57.2z"/>
	<path class="st2" d="M290.1,41.3c0,0.8,0.1,1.9,0.1,3.3c0.1,1.4,0.1,3,0.1,4.8c0,1.8,0,3.6-0.1,5.6c-0.1,2-0.2,4-0.5,5.9
		c-0.2,2-0.6,3.9-1.1,5.7c-0.5,1.9-1.1,3.5-1.9,5c-0.8,1.5-1.7,2.8-2.9,3.8c-1.1,1-2.5,1.7-4.1,2c-0.2,0-0.6-0.1-1.1-0.5
		c-0.5-0.3-1-0.8-1.5-1.3c-0.5-0.5-1.1-1.1-1.6-1.8c-0.5-0.6-0.9-1.2-1.3-1.8c-0.3-0.6-0.5-1.1-0.5-1.5c0-0.4,0.2-0.6,0.6-0.7
		c1.6-0.1,3-0.5,4.2-1.1c1.2-0.6,2.2-1.4,3-2.4c0.8-1,1.5-2.1,1.9-3.4c0.5-1.3,0.9-2.6,1.1-4c-0.5,0.7-1,1.4-1.7,1.9
		c-0.6,0.5-1.4,0.8-2.2,0.9c-1.1,0.1-2.2-0.1-3.1-0.5c-0.9-0.5-1.7-1.1-2.3-2.1c-0.6-0.9-1.2-2.1-1.5-3.4c-0.4-1.3-0.7-2.9-0.8-4.6
		c-0.2-1.7-0.1-3.2,0.3-4.5c0.3-1.3,0.8-2.5,1.5-3.5c0.6-1,1.4-1.7,2.2-2.3c0.8-0.6,1.7-0.9,2.6-1c1.3-0.1,2.4,0.2,3.2,0.9
		c0.9,0.7,1.6,1.6,2.2,2.7c0-0.5-0.1-1-0.1-1.4c0-0.5,0-0.9,0-1.3c0-0.3,0.3-0.5,0.8-0.6c0.5-0.1,1.1-0.2,1.7-0.1
		c0.6,0.1,1.2,0.2,1.8,0.4C289.9,40.8,290.1,41,290.1,41.3z M281.5,54.9c0.3,0,0.6-0.3,0.9-0.8c0.3-0.5,0.4-1.2,0.6-1.9
		c0.1-0.8,0.2-1.6,0.2-2.5c0-0.9-0.1-1.7-0.3-2.4c-0.2-0.7-0.4-1.3-0.8-1.7c-0.3-0.4-0.8-0.6-1.3-0.6c-0.5,0.1-0.9,0.4-1.1,0.9
		c-0.3,0.5-0.5,1.2-0.6,1.9c-0.1,0.7-0.1,1.5-0.1,2.4c0.1,0.9,0.2,1.6,0.4,2.4c0.2,0.7,0.5,1.3,0.8,1.7S281.1,55,281.5,54.9z"/>
	<path class="st3" d="M305,40.2c0-0.2,0.2-0.3,0.5-0.4c0.4-0.1,0.8-0.2,1.3-0.2c0.5,0,1.1,0,1.7,0c0.6,0.1,1.2,0.1,1.7,0.2
		c0.5,0.1,1,0.2,1.3,0.4c0.3,0.1,0.5,0.3,0.5,0.5c0,0.2-0.1,0.8-0.2,1.8c-0.1,1.1-0.2,2.4-0.3,3.9c-0.1,1.5-0.3,3.2-0.4,4.9
		c-0.2,1.8-0.3,3.4-0.4,4.9c-0.1,1.5-0.3,2.8-0.4,3.8c-0.1,1.1-0.2,1.7-0.2,1.8c-0.1,0.2-0.4,0.4-0.9,0.5c-0.5,0.1-1.1,0.2-1.7,0.2
		c-0.6,0-1.2-0.1-1.7-0.2c-0.5-0.1-0.8-0.3-0.8-0.5c0-0.1-0.1-0.7-0.1-1.8c0-1,0-2.3,0-3.8c0-1.5,0-3.1,0-4.8c0-1.7,0-3.4,0-5
		c0-1.6,0-2.9,0-4.1C304.9,41.3,305,40.5,305,40.2z M311.7,33.8c0,0.6-0.1,1.2-0.3,1.7c-0.2,0.5-0.4,1-0.7,1.4
		c-0.3,0.4-0.7,0.7-1.1,1s-0.8,0.4-1.3,0.4c-0.4,0-0.8-0.1-1.2-0.4c-0.4-0.3-0.7-0.6-0.9-1.1c-0.3-0.5-0.5-1-0.6-1.5
		s-0.2-1.1-0.2-1.7s0.1-1.2,0.3-1.7c0.2-0.5,0.5-1,0.9-1.4c0.4-0.4,0.8-0.7,1.2-0.9c0.5-0.2,0.9-0.3,1.3-0.3c0.9,0,1.5,0.5,1.9,1.4
		C311.5,31.5,311.7,32.6,311.7,33.8z"/>
	<path class="st3" d="M328.2,34.9c1.3,0,2.3,0.5,3.1,1.5c0.7,1,1.3,2.4,1.7,4c0.4,1.6,0.6,3.4,0.7,5.4c0.1,2,0.1,3.9,0,5.8
		c-0.1,1.9-0.2,3.6-0.3,5.1c-0.1,1.6-0.2,2.7-0.2,3.5c0,0.3-0.3,0.5-0.8,0.7c-0.5,0.2-1.1,0.2-1.7,0.3c-0.6,0-1.2,0-1.8-0.1
		c-0.5-0.1-0.8-0.3-0.9-0.5c-0.1-0.6-0.2-1.4-0.2-2.4c-0.1-1-0.1-2.1-0.2-3.2c-0.1-1.1-0.1-2.3-0.2-3.4c-0.1-1.1-0.2-2.2-0.3-3.1
		c-0.2-0.9-0.4-1.7-0.6-2.3c-0.3-0.6-0.6-0.9-1-0.9c-0.5,0-1,0.2-1.5,0.7c-0.5,0.5-0.9,1.2-1.3,2c-0.4,0.8-0.8,1.8-1.1,2.8
		c-0.3,1-0.6,2.1-0.9,3.2c-0.1,1.7-0.2,3.3-0.3,4.8c-0.1,1.5-0.1,2.8-0.2,3.9c0,0.4-0.3,0.6-0.9,0.7c-0.6,0.1-1.2,0.2-1.9,0.1
		c-0.7,0-1.3-0.1-1.9-0.3c-0.6-0.2-0.9-0.3-0.9-0.6c0-1.3,0-2.8,0-4.4c0-1.6,0-3.3-0.1-5c0-1.7,0-3.4-0.1-5.2c0-1.8,0-3.4-0.1-5.1
		c0-1.6,0-3.1-0.1-4.5c0-1.4,0-2.6,0-3.7c0-0.2,0.2-0.3,0.6-0.5c0.4-0.2,0.9-0.3,1.5-0.4c0.6-0.1,1.3-0.2,2-0.2c0.7-0.1,1.4-0.1,2,0
		c0.6,0,1.1,0.1,1.5,0.2s0.6,0.3,0.6,0.5c-0.1,0.7-0.2,1.4-0.3,2.2c-0.1,0.8-0.2,1.6-0.3,2.5c0.9-1.2,1.8-2.2,2.8-3
		S327,34.9,328.2,34.9z"/>
	<path class="st4" d="M362.9,47.3c0.1,0.6,0.3,1.6,0.4,2.9c0.1,1.3,0.2,2.6,0.3,4.1c0.1,1.4,0.2,2.8,0.3,4.2
		c0.1,1.3,0.2,2.4,0.2,3.2c0,0.4-0.3,0.7-0.9,1c-0.7,0.2-1.4,0.4-2.2,0.4c-0.8,0-1.6-0.1-2.2-0.2c-0.7-0.2-1-0.5-1-0.9
		c0-0.5,0-1.2,0.1-2c0.1-0.8,0.1-1.7,0.2-2.6c0.1-0.9,0.1-1.9,0.1-2.9c0-1,0-1.8-0.1-2.6c-0.1-0.8-0.2-1.4-0.5-1.8
		c-0.2-0.5-0.6-0.7-1-0.7c-0.5,0-0.9,0.4-1.3,1.1c-0.4,0.7-0.7,1.6-1,2.7c-0.3,1-0.5,2.1-0.7,3.3c-0.2,1.1-0.3,2.1-0.4,2.9
		c0,0.6-0.1,1.2-0.1,1.7c0,0.6,0,1.1,0,1.5c0,0.3-0.3,0.6-0.9,0.7c-0.6,0.1-1.2,0.1-1.9,0.1c-0.7-0.1-1.3-0.2-1.9-0.4
		c-0.6-0.2-0.8-0.5-0.8-0.8c0-1,0-2.3,0-4c0-1.7,0-3.6-0.1-5.6c0-2.1-0.1-4.2-0.1-6.4c0-2.2-0.1-4.4-0.1-6.4
		c-0.1-2.1-0.1-3.9-0.2-5.6c-0.1-1.7-0.1-3-0.2-4c0-0.3,0.1-0.5,0.5-0.7c0.4-0.2,0.8-0.3,1.3-0.4c0.5-0.1,1.1-0.1,1.8-0.1
		c0.6,0,1.2,0.1,1.8,0.2c0.5,0.1,1,0.3,1.3,0.5c0.4,0.2,0.5,0.5,0.5,0.8c0,1-0.1,2.2-0.1,3.5c-0.1,1.3-0.1,2.7-0.2,4.1
		c-0.1,1.5-0.1,3-0.2,4.6c-0.1,1.6-0.1,3.1-0.2,4.7c0.3-0.6,0.6-1.2,0.9-1.8c0.4-0.6,0.7-1.2,1.2-1.7c0.4-0.5,0.9-1,1.3-1.3
		c0.5-0.3,0.9-0.5,1.4-0.5c0.7,0,1.3,0.2,1.8,0.5c0.5,0.4,0.9,0.8,1.2,1.4c0.3,0.6,0.6,1.2,0.8,1.9C362.6,46,362.8,46.7,362.9,47.3z
		"/>
	<path class="st4" d="M383,43.8c0.4,0.9,0.5,1.9,0.5,2.9c0,1-0.1,1.9-0.2,2.7c-0.2,0.9-0.4,1.9-0.7,2.8l-8,2.1
		c0.2,0.7,0.5,1.3,0.9,1.8c0.4,0.5,0.8,1,1.4,1.3c0.5,0.3,1.2,0.5,1.9,0.5c0.7,0,1.5-0.1,2.4-0.4c0.2-0.1,0.4,0,0.6,0.3
		c0.2,0.3,0.4,0.6,0.5,1c0.1,0.4,0.2,0.8,0.2,1.2c0,0.4-0.1,0.6-0.2,0.8c-1.8,1.3-3.6,2-5.4,2.2s-3.4,0-4.8-0.6
		c-1.4-0.6-2.6-1.6-3.6-2.8c-0.9-1.3-1.5-2.8-1.6-4.5c-0.2-2.1,0-4.1,0.6-5.9c0.5-1.9,1.3-3.5,2.3-4.9c1-1.4,2.1-2.6,3.3-3.4
		c1.3-0.9,2.5-1.4,3.8-1.5c1.2-0.1,2.4,0.2,3.5,0.9C381.4,40.8,382.3,42.1,383,43.8z M378.9,49.1c0.2-0.9,0.3-1.7,0.3-2.5
		c0-0.6-0.1-1.2-0.3-1.7c-0.2-0.5-0.6-0.8-1.1-0.7c-0.5,0.1-1,0.3-1.5,0.6c-0.4,0.4-0.8,0.8-1.1,1.4c-0.3,0.6-0.5,1.2-0.7,1.9
		c-0.2,0.7-0.3,1.5-0.3,2.2L378.9,49.1z"/>
	<path class="st4" d="M403.3,29.1c0.2,0,0.3,0.4,0.2,1.1c-0.1,0.7-0.2,1.4-0.4,2.2c-0.2,0.8-0.4,1.5-0.7,2.2c-0.3,0.7-0.5,1-0.8,1
		c-0.3,0-1-0.1-2.3-0.1c-1.3,0-2.7,0-4.4-0.1c-0.4,2.1-0.8,4.3-1.1,6.6c-0.3,2.3-0.5,4.5-0.4,6.7c0,2.2,0.3,4.2,0.8,6.1
		c0.5,1.9,1.4,3.5,2.6,4.8c0.2,0.3,0.2,0.6-0.1,1c-0.3,0.4-0.7,0.8-1.2,1.2c-0.5,0.4-1,0.7-1.5,0.9s-0.8,0.3-1,0.2
		c-1.6-1-2.8-2.5-3.7-4.6c-0.9-2.1-1.6-4.4-2-7c-0.4-2.6-0.6-5.3-0.7-8.2c0-2.9,0-5.5,0.2-8.1c-1.1-0.1-2.1-0.1-2.9-0.1
		c-0.8,0-1.2-0.1-1.3-0.1c-0.1,0-0.2-0.3-0.2-0.9c0-0.6,0-1.2,0.1-1.8c0.1-0.7,0.2-1.3,0.4-1.8c0.2-0.5,0.3-0.8,0.5-0.8
		c0.2,0,0.6-0.1,1.3-0.1c0.7,0,1.5,0,2.5-0.1c0.2-1.5,0.3-2.8,0.5-3.7c0.2-1,0.3-1.6,0.3-1.8c0-0.2,0.3-0.3,0.8-0.4
		c0.5-0.1,1.1-0.1,1.8-0.2c0.7,0,1.5,0,2.4,0c0.8,0,1.6,0.1,2.3,0.2c0.7,0.1,1.3,0.2,1.7,0.4s0.7,0.3,0.6,0.5c0,0.2-0.1,0.7-0.4,1.5
		s-0.6,1.9-0.9,3.1c1.7,0,3.2-0.1,4.5-0.1C402.2,29.1,403,29.1,403.3,29.1z"/>
	<path class="st5" d="M418.5,23.9c0.1-0.5,0.5-0.9,1-1.1c0.5-0.3,1.2-0.4,1.9-0.5c0.7-0.1,1.5-0.1,2.3,0c0.8,0.1,1.5,0.2,2.2,0.5
		c0.7,0.2,1.2,0.5,1.6,0.8s0.6,0.6,0.6,1c0,0.2-0.2,0.7-0.4,1.5c-0.3,0.8-0.6,1.9-0.9,3.3c-0.4,1.3-0.8,2.9-1.2,4.6
		c-0.4,1.7-0.8,3.5-1.1,5.4c-0.3,1.9-0.6,3.8-0.7,5.7c-0.2,1.9-0.2,3.8,0,5.6c0.2,1.8,0.5,3.5,1,5c0.5,1.6,1.3,2.9,2.3,3.9
		c0.2,0.3,0.2,0.6-0.1,1c-0.3,0.4-0.7,0.8-1.2,1.2c-0.5,0.4-1,0.7-1.5,0.9s-0.9,0.3-1.1,0.2c-1.2-0.8-2.3-1.9-3.1-3.4
		c-0.8-1.5-1.5-3.2-1.9-5.1c-0.5-1.9-0.8-4-1-6.1c-0.2-2.2-0.3-4.4-0.3-6.6s0.1-4.3,0.2-6.4s0.3-3.9,0.5-5.5c0.2-1.6,0.3-3,0.5-4.1
		C418.4,24.8,418.5,24.2,418.5,23.9z"/>
	<path class="st5" d="M446,43.8c0.4,0.9,0.5,1.9,0.5,2.9c0,1-0.1,1.9-0.2,2.7c-0.2,0.9-0.4,1.9-0.7,2.8l-8,2.1
		c0.2,0.7,0.5,1.3,0.9,1.8c0.4,0.5,0.8,1,1.4,1.3c0.5,0.3,1.2,0.5,1.9,0.5c0.7,0,1.5-0.1,2.4-0.4c0.2-0.1,0.4,0,0.6,0.3
		c0.2,0.3,0.4,0.6,0.5,1s0.2,0.8,0.2,1.2c0,0.4-0.1,0.6-0.2,0.8c-1.8,1.3-3.6,2-5.4,2.2s-3.4,0-4.8-0.6c-1.4-0.6-2.6-1.6-3.6-2.8
		c-0.9-1.3-1.5-2.8-1.6-4.5c-0.2-2.1,0-4.1,0.6-5.9c0.5-1.9,1.3-3.5,2.3-4.9c1-1.4,2.1-2.6,3.3-3.4c1.3-0.9,2.5-1.4,3.8-1.5
		c1.2-0.1,2.4,0.2,3.5,0.9C444.5,40.8,445.3,42.1,446,43.8z M441.9,49.1c0.2-0.9,0.3-1.7,0.3-2.5c0-0.6-0.1-1.2-0.3-1.7
		c-0.2-0.5-0.6-0.8-1.1-0.7c-0.5,0.1-1,0.3-1.5,0.6c-0.4,0.4-0.8,0.8-1.1,1.4c-0.3,0.6-0.5,1.2-0.7,1.9c-0.2,0.7-0.3,1.5-0.3,2.2
		L441.9,49.1z"/>
	<path class="st5" d="M464.9,31.9c0.3-0.3,0.8-0.3,1.5-0.1c0.7,0.2,1.5,0.6,2.3,1c0.8,0.5,1.5,0.9,2,1.5c0.6,0.5,0.9,1,0.8,1.3
		c0,0.2-0.2,0.9-0.7,2.1c-0.4,1.1-1,2.6-1.6,4.3c-0.6,1.7-1.4,3.5-2.2,5.5c-0.8,2-1.6,4-2.3,5.8c-0.7,1.9-1.4,3.6-1.9,5.2
		c-0.6,1.6-1,2.8-1.2,3.7c-0.1,0.4-0.5,0.7-1.2,0.8s-1.4,0.1-2.2,0c-0.8-0.1-1.5-0.3-2.3-0.6c-0.7-0.3-1.2-0.6-1.4-1
		c-0.1-0.2-0.4-1-0.7-2.2c-0.3-1.2-0.7-2.7-1.1-4.4c-0.4-1.7-0.9-3.5-1.3-5.5c-0.4-2-0.8-3.8-1.2-5.5c-0.4-1.7-0.7-3.2-0.9-4.5
		c-0.2-1.3-0.4-2.1-0.4-2.5c0-0.2,0.4-0.5,1.1-0.7c0.7-0.3,1.5-0.5,2.3-0.6c0.8-0.2,1.6-0.2,2.4-0.3c0.7,0,1.1,0.1,1.2,0.3
		c0.1,0.2,0.2,0.8,0.4,1.9c0.2,1.1,0.4,2.4,0.6,4c0.2,1.5,0.5,3.1,0.7,4.8c0.2,1.7,0.4,3.1,0.6,4.4c0.3-1,0.7-2.1,1.1-3.4
		c0.4-1.3,0.9-2.6,1.3-3.9c0.4-1.3,0.9-2.7,1.3-4c0.4-1.3,0.9-2.5,1.2-3.6c0.4-1.1,0.7-2,1-2.7C464.5,32.5,464.8,32.1,464.9,31.9z"
		/>
	<path class="st5" d="M486,43.8c0.4,0.9,0.5,1.9,0.5,2.9c0,1-0.1,1.9-0.2,2.7c-0.2,0.9-0.4,1.9-0.7,2.8l-8,2.1
		c0.2,0.7,0.5,1.3,0.9,1.8c0.4,0.5,0.8,1,1.4,1.3c0.5,0.3,1.2,0.5,1.9,0.5c0.7,0,1.5-0.1,2.4-0.4c0.2-0.1,0.4,0,0.6,0.3
		c0.2,0.3,0.4,0.6,0.5,1s0.2,0.8,0.2,1.2c0,0.4-0.1,0.6-0.2,0.8c-1.8,1.3-3.6,2-5.4,2.2s-3.4,0-4.8-0.6c-1.4-0.6-2.6-1.6-3.6-2.8
		c-0.9-1.3-1.5-2.8-1.6-4.5c-0.2-2.1,0-4.1,0.6-5.9c0.5-1.9,1.3-3.5,2.3-4.9c1-1.4,2.1-2.6,3.3-3.4c1.3-0.9,2.5-1.4,3.8-1.5
		c1.2-0.1,2.4,0.2,3.5,0.9S485.3,42.1,486,43.8z M481.9,49.1c0.2-0.9,0.3-1.7,0.3-2.5c0-0.6-0.1-1.2-0.3-1.7
		c-0.2-0.5-0.6-0.8-1.1-0.7c-0.5,0.1-1,0.3-1.5,0.6s-0.8,0.8-1.1,1.4s-0.5,1.2-0.7,1.9c-0.2,0.7-0.3,1.5-0.3,2.2L481.9,49.1z"/>
	<path class="st5" d="M502.6,34.9c1.3,0,2.3,0.5,3.1,1.5c0.7,1,1.3,2.4,1.7,4c0.4,1.6,0.6,3.4,0.7,5.4c0.1,2,0.1,3.9,0,5.8
		s-0.2,3.6-0.3,5.1c-0.1,1.6-0.2,2.7-0.2,3.5c0,0.3-0.3,0.5-0.8,0.7c-0.5,0.2-1.1,0.2-1.7,0.3c-0.6,0-1.2,0-1.8-0.1
		s-0.8-0.3-0.9-0.5c-0.1-0.6-0.2-1.4-0.2-2.4c0-1-0.1-2.1-0.2-3.2c-0.1-1.1-0.1-2.3-0.2-3.4c-0.1-1.1-0.2-2.2-0.3-3.1
		c-0.2-0.9-0.4-1.7-0.6-2.3c-0.3-0.6-0.6-0.9-1-0.9c-0.5,0-1,0.2-1.5,0.7c-0.5,0.5-0.9,1.2-1.3,2c-0.4,0.8-0.8,1.8-1.1,2.8
		c-0.3,1-0.6,2.1-0.9,3.2c-0.1,1.7-0.2,3.3-0.3,4.8c-0.1,1.5-0.1,2.8-0.2,3.9c0,0.4-0.3,0.6-0.9,0.7c-0.6,0.1-1.2,0.2-1.9,0.1
		c-0.7,0-1.3-0.1-1.9-0.3c-0.6-0.2-0.9-0.3-0.9-0.6c0-1.3,0-2.8,0-4.4c0-1.6,0-3.3-0.1-5c0-1.7,0-3.4-0.1-5.2c0-1.8,0-3.4-0.1-5.1
		c0-1.6,0-3.1-0.1-4.5c0-1.4,0-2.6,0-3.7c0-0.2,0.2-0.3,0.6-0.5c0.4-0.2,0.9-0.3,1.5-0.4c0.6-0.1,1.3-0.2,2-0.2c0.7-0.1,1.4-0.1,2,0
		c0.6,0,1.1,0.1,1.5,0.2c0.4,0.1,0.6,0.3,0.6,0.5c-0.1,0.7-0.2,1.4-0.3,2.2c-0.1,0.8-0.2,1.6-0.3,2.5c0.9-1.2,1.8-2.2,2.8-3
		S501.5,34.9,502.6,34.9z"/>
	<path class="st6" d="M538.2,31.9c0.3-0.3,0.8-0.3,1.5-0.1c0.7,0.2,1.5,0.6,2.3,1c0.8,0.5,1.5,0.9,2,1.5c0.6,0.5,0.9,1,0.8,1.3
		c0,0.2-0.2,0.9-0.7,2.1c-0.4,1.1-1,2.6-1.6,4.3c-0.6,1.7-1.4,3.5-2.2,5.5c-0.8,2-1.6,4-2.3,5.8c-0.7,1.9-1.4,3.6-1.9,5.2
		c-0.6,1.6-1,2.8-1.2,3.7c-0.1,0.4-0.5,0.7-1.2,0.8s-1.4,0.1-2.2,0c-0.8-0.1-1.5-0.3-2.3-0.6c-0.7-0.3-1.2-0.6-1.4-1
		c-0.1-0.2-0.4-1-0.7-2.2c-0.3-1.2-0.7-2.7-1.1-4.4c-0.4-1.7-0.9-3.5-1.3-5.5c-0.4-2-0.8-3.8-1.2-5.5c-0.4-1.7-0.7-3.2-0.9-4.5
		c-0.2-1.3-0.4-2.1-0.4-2.5c0-0.2,0.4-0.5,1.1-0.7c0.7-0.3,1.5-0.5,2.3-0.6c0.8-0.2,1.6-0.2,2.4-0.3c0.7,0,1.1,0.1,1.2,0.3
		c0.1,0.2,0.2,0.8,0.4,1.9c0.2,1.1,0.4,2.4,0.6,4c0.2,1.5,0.5,3.1,0.7,4.8c0.2,1.7,0.4,3.1,0.6,4.4c0.3-1,0.7-2.1,1.1-3.4
		c0.4-1.3,0.9-2.6,1.3-3.9c0.4-1.3,0.9-2.7,1.3-4c0.4-1.3,0.9-2.5,1.2-3.6c0.4-1.1,0.7-2,1-2.7C537.8,32.5,538,32.1,538.2,31.9z"/>
	<path class="st6" d="M563.5,42.6c0,0.6,0,1.4,0,2.3c0,0.9-0.1,2-0.1,3.2c-0.1,1.2-0.1,2.4-0.2,3.7c-0.1,1.3-0.2,2.5-0.3,3.8
		c-0.1,1.2-0.2,2.4-0.3,3.5c-0.1,1.1-0.2,2.1-0.3,3c0,0.4-0.3,0.6-0.9,0.8c-0.5,0.2-1.1,0.3-1.8,0.3c-0.6,0-1.2-0.1-1.7-0.2
		c-0.5-0.2-0.8-0.4-0.8-0.7c0-1,0.1-2.2,0.2-3.7c-0.4,0.6-0.8,1.2-1.2,1.8c-0.4,0.6-0.9,1.1-1.4,1.5s-1.1,0.7-1.6,0.9
		c-0.6,0.2-1.2,0.2-1.8,0.1c-0.9-0.2-1.7-0.5-2.3-1.1c-0.6-0.6-1.1-1.3-1.3-2.2c-0.3-0.9-0.4-1.9-0.5-3.1c0-1.2,0.1-2.4,0.4-3.8
		c0.2-1.3,0.6-2.5,1.2-3.5c0.6-1,1.2-1.8,2-2.5c0.7-0.6,1.5-1.1,2.3-1.3c0.8-0.2,1.5-0.3,2.3-0.2c0.9,0.1,1.6,0.5,2.2,1.2
		c-0.1-0.9-0.3-1.7-0.6-2.3c-0.3-0.6-0.8-1-1.4-1.2c-0.6-0.2-1.5-0.2-2.5,0c-1,0.2-2.2,0.6-3.7,1.3c-0.4,0.2-0.7,0-1-0.5
		c-0.3-0.5-0.5-1.1-0.6-1.8c-0.1-0.7-0.1-1.4,0-2.1c0.1-0.7,0.3-1.1,0.7-1.3c0.4-0.2,0.9-0.5,1.3-0.7c0.4-0.2,0.9-0.5,1.5-0.7
		c0.6-0.2,1.2-0.4,2-0.5s1.7-0.2,2.8-0.3c1.1,0,2.1,0.1,3,0.4c0.9,0.3,1.7,0.8,2.4,1.4c0.7,0.6,1.2,1.3,1.5,2.1
		C563.3,40.8,563.5,41.7,563.5,42.6z M553.2,57.2c0.3,0.1,0.6-0.1,0.9-0.5c0.3-0.4,0.6-0.8,0.9-1.4c0.3-0.6,0.5-1.2,0.7-1.9
		c0.2-0.7,0.3-1.4,0.3-2c0-0.6,0-1.1-0.2-1.5c-0.2-0.4-0.5-0.7-0.9-0.7c-0.4,0-0.8,0.1-1.1,0.5c-0.3,0.4-0.6,0.8-0.9,1.4
		c-0.3,0.6-0.5,1.2-0.6,1.9c-0.2,0.7-0.2,1.3-0.2,1.9c0,0.6,0.1,1.1,0.3,1.6C552.5,56.9,552.8,57.2,553.2,57.2z"/>
	<path class="st6" d="M579.9,34.9c1.3,0,2.3,0.5,3.1,1.5c0.7,1,1.3,2.4,1.7,4c0.4,1.6,0.6,3.4,0.7,5.4c0.1,2,0.1,3.9,0,5.8
		s-0.2,3.6-0.3,5.1c-0.1,1.6-0.2,2.7-0.2,3.5c0,0.3-0.3,0.5-0.8,0.7c-0.5,0.2-1.1,0.2-1.7,0.3c-0.6,0-1.2,0-1.8-0.1
		s-0.8-0.3-0.9-0.5c-0.1-0.6-0.2-1.4-0.2-2.4c0-1-0.1-2.1-0.2-3.2c-0.1-1.1-0.1-2.3-0.2-3.4c-0.1-1.1-0.2-2.2-0.3-3.1
		c-0.2-0.9-0.4-1.7-0.6-2.3c-0.3-0.6-0.6-0.9-1-0.9c-0.5,0-1,0.2-1.5,0.7c-0.5,0.5-0.9,1.2-1.3,2c-0.4,0.8-0.8,1.8-1.1,2.8
		c-0.3,1-0.6,2.1-0.9,3.2c-0.1,1.7-0.2,3.3-0.3,4.8c-0.1,1.5-0.1,2.8-0.2,3.9c0,0.4-0.3,0.6-0.9,0.7c-0.6,0.1-1.2,0.2-1.9,0.1
		c-0.7,0-1.3-0.1-1.9-0.3c-0.6-0.2-0.9-0.3-0.9-0.6c0-1.3,0-2.8,0-4.4c0-1.6,0-3.3-0.1-5c0-1.7,0-3.4-0.1-5.2c0-1.8,0-3.4-0.1-5.1
		c0-1.6,0-3.1-0.1-4.5c0-1.4,0-2.6,0-3.7c0-0.2,0.2-0.3,0.6-0.5c0.4-0.2,0.9-0.3,1.5-0.4c0.6-0.1,1.3-0.2,2-0.2c0.7-0.1,1.4-0.1,2,0
		c0.6,0,1.1,0.1,1.5,0.2c0.4,0.1,0.6,0.3,0.6,0.5c-0.1,0.7-0.2,1.4-0.3,2.2c-0.1,0.8-0.2,1.6-0.3,2.5c0.9-1.2,1.8-2.2,2.8-3
		S578.7,34.9,579.9,34.9z"/>
	<path class="st2" d="M625,25.8c0.2,0.2,0.3,0.7,0.3,1.4c0,0.7-0.1,1.5-0.2,2.3s-0.3,1.6-0.5,2.2c-0.2,0.7-0.4,1-0.5,1.1
		c-0.1,0-0.4,0.1-1.1,0.2c-0.6,0.1-1.5,0.3-2.5,0.4c-1,0.2-2.1,0.4-3.4,0.6c-1.3,0.2-2.6,0.4-3.9,0.6c-0.1,1.3-0.2,2.8-0.3,4.4
		c-0.1,1.6-0.2,3.3-0.3,5c0.7,0,1.5,0,2.3,0s1.6,0,2.3,0.1c0.7,0,1.3,0.1,1.8,0.1c0.5,0.1,0.8,0.1,0.9,0.1c0.2,0.1,0.3,0.4,0.3,0.9
		c0,0.5,0,1.1,0,1.7c0,0.6-0.1,1.2-0.2,1.7c-0.1,0.5-0.1,0.9-0.2,1c0,0.1-0.3,0.1-0.8,0.2c-0.5,0.1-1.1,0.2-1.9,0.2
		c-0.8,0.1-1.6,0.1-2.5,0.2c-0.9,0.1-1.7,0.1-2.6,0.1c-0.1,1.5-0.1,3-0.2,4.3c-0.1,1.4-0.1,2.6-0.2,3.7c0,1.1-0.1,2-0.1,2.7
		c0,0.7,0,1.2,0,1.4c0,0.2-0.2,0.5-0.6,1c-0.4,0.4-0.9,0.9-1.5,1.3c-0.6,0.4-1.1,0.7-1.7,0.9c-0.6,0.2-1,0.1-1.2-0.2
		c-0.1-0.1-0.2-0.6-0.3-1.7c-0.1-1-0.2-2.4-0.4-4c-0.1-1.6-0.3-3.5-0.4-5.6s-0.3-4.2-0.4-6.4c-0.1-2.2-0.3-4.3-0.4-6.4
		c-0.1-2.1-0.2-3.9-0.3-5.5c-0.6,0.1-1.2,0.2-1.7,0.3c-0.5,0.1-1,0.2-1.3,0.2c-0.4,0.1-0.8,0.1-1.2,0.2c-0.2-0.1-0.4-0.4-0.6-1
		c-0.2-0.6-0.3-1.2-0.5-1.9c-0.1-0.7-0.2-1.3-0.2-1.9c0-0.6,0.1-1,0.2-1.2c0.1-0.1,0.7-0.4,2-0.7c1.2-0.3,2.8-0.7,4.7-1.1
		c1.9-0.4,3.9-0.8,6-1.2c2.2-0.4,4.2-0.8,6.1-1.1c1.9-0.3,3.5-0.6,4.8-0.7S624.9,25.6,625,25.8z"/>
	<path class="st2" d="M629.8,23.9c0.1-0.5,0.5-0.9,1-1.1c0.5-0.3,1.2-0.4,1.9-0.5c0.7-0.1,1.5-0.1,2.3,0c0.8,0.1,1.5,0.2,2.2,0.5
		c0.7,0.2,1.2,0.5,1.6,0.8s0.6,0.6,0.6,1c0,0.2-0.2,0.7-0.4,1.5c-0.3,0.8-0.6,1.9-0.9,3.3c-0.4,1.3-0.8,2.9-1.2,4.6
		c-0.4,1.7-0.8,3.5-1.1,5.4c-0.3,1.9-0.6,3.8-0.7,5.7c-0.2,1.9-0.2,3.8,0,5.6c0.2,1.8,0.5,3.5,1,5c0.5,1.6,1.3,2.9,2.3,3.9
		c0.2,0.3,0.2,0.6-0.1,1c-0.3,0.4-0.7,0.8-1.2,1.2c-0.5,0.4-1,0.7-1.5,0.9s-0.9,0.3-1.1,0.2c-1.2-0.8-2.3-1.9-3.1-3.4
		c-0.8-1.5-1.5-3.2-1.9-5.1c-0.5-1.9-0.8-4-1-6.1c-0.2-2.2-0.3-4.4-0.3-6.6s0.1-4.3,0.2-6.4s0.3-3.9,0.5-5.5c0.2-1.6,0.3-3,0.5-4.1
		C629.7,24.8,629.8,24.2,629.8,23.9z"/>
	<path class="st2" d="M650.3,35.8c1.6,0,2.8,0.5,3.8,1.4c1,0.9,1.8,2,2.3,3.4c0.6,1.3,1,2.8,1.2,4.3c0.2,1.5,0.3,2.9,0.3,4.1
		c0,1.2-0.2,2.6-0.6,4.2c-0.4,1.6-0.9,3.1-1.7,4.5c-0.7,1.4-1.7,2.6-2.8,3.6c-1.1,1-2.4,1.5-3.8,1.5c-1.4,0-2.6-0.3-3.7-1
		c-1-0.7-1.9-1.6-2.5-2.9c-0.7-1.2-1.1-2.7-1.5-4.4c-0.3-1.7-0.5-3.6-0.5-5.6s0.3-3.9,0.8-5.5c0.6-1.6,1.3-3,2.2-4.1
		c0.9-1.1,1.9-2,3-2.5C648.1,36.1,649.2,35.8,650.3,35.8z M650.7,54.1c0.4,0,0.8-0.3,1.2-0.9c0.4-0.6,0.6-1.4,0.9-2.3
		c0.2-0.9,0.4-1.9,0.5-3c0.1-1.1,0.1-2,0-3c-0.1-0.9-0.4-1.7-0.7-2.2c-0.4-0.6-0.9-0.8-1.5-0.8c-0.6,0-1.1,0.4-1.5,1
		c-0.4,0.6-0.7,1.4-0.9,2.3c-0.2,0.9-0.3,1.9-0.4,2.9c0,1,0.1,2,0.2,2.9c0.2,0.9,0.4,1.6,0.8,2.2C649.7,53.8,650.2,54.1,650.7,54.1z
		"/>
	<path class="st2" d="M677.7,30.8c0.2,0,0.4,0.2,0.6,0.5c0.2,0.3,0.3,0.8,0.5,1.3c0.1,0.5,0.2,1.1,0.3,1.7c0.1,0.6,0.1,1.2,0.1,1.7
		c0,0.5,0,0.9-0.1,1.3c-0.1,0.4-0.2,0.5-0.4,0.5c-1.2,0-2.4,0.4-3.6,1.2c-1.2,0.8-2.3,1.8-3.4,3.1c-1,1.3-1.9,2.8-2.7,4.5
		c-0.8,1.7-1.3,3.5-1.6,5.3c-0.1,2-0.1,3.8-0.2,5.6s-0.1,3.4-0.2,4.8c0,0.3-0.3,0.6-0.9,0.7c-0.6,0.1-1.2,0.1-1.9,0.1
		c-0.7-0.1-1.3-0.2-1.9-0.4c-0.6-0.2-0.9-0.5-0.9-0.9c0-1,0-2.3-0.1-3.8c0-1.5-0.1-3.1-0.1-4.9c0-1.7-0.1-3.5-0.2-5.4
		c-0.1-1.9-0.1-3.7-0.2-5.4c-0.1-1.7-0.1-3.4-0.2-4.9c-0.1-1.5-0.2-2.8-0.2-3.8c0-0.3,0.1-0.6,0.5-0.8c0.4-0.2,0.8-0.3,1.4-0.4
		c0.6-0.1,1.2-0.1,1.8-0.1c0.7,0,1.3,0.1,1.8,0.2c0.6,0.1,1,0.3,1.4,0.5c0.4,0.2,0.6,0.5,0.6,0.8c-0.1,1.5-0.1,3.1-0.2,4.7
		c0.4-0.8,1-1.7,1.6-2.6c0.6-0.9,1.3-1.7,2.2-2.5c0.8-0.8,1.7-1.4,2.8-1.9C675.3,31.1,676.4,30.8,677.7,30.8z"/>
	<path class="st2" d="M699.2,57c0.2,0.1,0.2,0.4,0,0.8s-0.4,0.9-0.8,1.3c-0.3,0.5-0.7,1-1.2,1.5c-0.5,0.5-0.9,1-1.3,1.3
		c-0.4,0.4-0.8,0.7-1.2,0.9c-0.4,0.2-0.6,0.2-0.8,0c-0.4-0.3-0.8-0.8-1.2-1.4c-0.5-0.6-1-1.3-1.5-2c-0.5-0.7-1.1-1.5-1.7-2.4
		c-0.6-0.8-1.1-1.7-1.7-2.5c-0.1,1.9-0.1,3.6-0.2,5.1c-0.1,1.6-0.1,2.9-0.2,4c0,0.3-0.3,0.6-0.9,0.7c-0.6,0.1-1.2,0.1-1.9,0.1
		c-0.7-0.1-1.3-0.2-1.9-0.5c-0.6-0.2-0.9-0.5-0.9-0.9c0-1,0-2.4,0-4.1c0-1.8,0-3.7,0-5.8c0-2.1,0-4.3-0.1-6.7c0-2.3,0-4.5-0.1-6.7
		c0-2.1-0.1-4.1-0.1-5.8c0-1.8-0.1-3.1-0.2-4.1c0-0.5,0.3-0.8,1.1-1c0.8-0.2,1.7-0.3,2.6-0.3c1,0,1.8,0.2,2.6,0.5
		c0.8,0.3,1.2,0.6,1.1,1.1c-0.1,1.8-0.2,3.9-0.3,6.3c-0.1,2.4-0.2,5-0.4,7.7c1-1.1,2.1-2.1,3.2-3.2c1.1-1,1.9-1.8,2.6-2.4
		c0.2-0.1,0.5,0,0.9,0.5c0.4,0.5,0.8,1,1.2,1.7c0.4,0.7,0.7,1.3,0.9,1.9c0.2,0.6,0.3,1,0.1,1.2c-0.7,0.5-1.7,1.2-2.9,2
		c-1.2,0.8-2.4,1.7-3.6,2.6c0.7,0.7,1.4,1.4,2.2,2.1c0.8,0.7,1.5,1.5,2.3,2.3c0.8,0.8,1.5,1.5,2.2,2.2C698,55.7,698.6,56.4,699.2,57
		z"/>
	<path class="st2" d="M717.7,43.8c0.4,0.9,0.5,1.9,0.5,2.9c0,1-0.1,1.9-0.2,2.7c-0.2,0.9-0.4,1.9-0.7,2.8l-8,2.1
		c0.2,0.7,0.5,1.3,0.9,1.8c0.4,0.5,0.8,1,1.4,1.3c0.5,0.3,1.2,0.5,1.9,0.5c0.7,0,1.5-0.1,2.4-0.4c0.2-0.1,0.4,0,0.6,0.3
		c0.2,0.3,0.4,0.6,0.5,1s0.2,0.8,0.2,1.2c0,0.4-0.1,0.6-0.2,0.8c-1.8,1.3-3.6,2-5.4,2.2s-3.4,0-4.8-0.6c-1.4-0.6-2.6-1.6-3.6-2.8
		c-0.9-1.3-1.5-2.8-1.6-4.5c-0.2-2.1,0-4.1,0.6-5.9c0.5-1.9,1.3-3.5,2.3-4.9c1-1.4,2.1-2.6,3.3-3.4c1.3-0.9,2.5-1.4,3.8-1.5
		c1.2-0.1,2.4,0.2,3.5,0.9S717,42.1,717.7,43.8z M713.6,49.1c0.2-0.9,0.3-1.7,0.3-2.5c0-0.6-0.1-1.2-0.3-1.7
		c-0.2-0.5-0.6-0.8-1.1-0.7c-0.5,0.1-1,0.3-1.5,0.6s-0.8,0.8-1.1,1.4s-0.5,1.2-0.7,1.9c-0.2,0.7-0.3,1.5-0.3,2.2L713.6,49.1z"/>
</g>
<g>
	<path class="st4" d="M67.8,139.7c0.2-1.4,0.5-3.1,0.7-4.9c0.2-1.8,0.5-3.7,0.7-5.6c0.2-2,0.5-4,0.7-6c0.2-2,0.5-3.9,0.7-5.8
		c0.2-1.8,0.5-3.5,0.8-5.1c0.3-1.6,0.6-2.8,0.9-3.9c0.1-0.4,0.5-0.7,1.1-1c0.6-0.3,1.2-0.6,1.9-0.8c0.7-0.2,1.3-0.3,1.9-0.2
		c0.6,0,1,0.2,1.1,0.6c0.3,0.8,0.6,1.9,1,3.3s0.7,2.7,1.1,4.1c0.4,1.6,0.8,3.2,1.2,4.9c0.6-1.8,1.2-3.6,1.8-5.3
		c0.5-1.4,1-2.9,1.5-4.4c0.5-1.5,1-2.7,1.4-3.7c0.1-0.3,0.5-0.6,1.1-0.8c0.6-0.2,1.2-0.3,1.9-0.3c0.7,0,1.3,0.1,1.8,0.2
		c0.5,0.2,0.8,0.4,0.9,0.8c0.2,1,0.3,2.4,0.6,3.9c0.2,1.6,0.4,3.3,0.7,5.2c0.2,1.9,0.5,3.9,0.8,5.9s0.6,4.1,0.8,6
		c0.3,2,0.5,3.8,0.8,5.5c0.3,1.7,0.5,3.2,0.7,4.4c0,0.2-0.1,0.5-0.4,0.8c-0.3,0.3-0.7,0.6-1.2,0.9c-0.5,0.3-1.1,0.6-1.7,0.8
		c-0.6,0.3-1.2,0.5-1.7,0.6c-0.5,0.1-1,0.2-1.4,0.1c-0.4,0-0.6-0.2-0.6-0.5c-0.1-0.6-0.2-1.3-0.3-2.2c-0.1-0.9-0.2-1.9-0.3-3
		c-0.1-1.1-0.2-2.2-0.3-3.4c-0.1-1.2-0.2-2.3-0.3-3.5c-0.2-2.6-0.5-5.5-0.7-8.5c-0.5,1.8-1,3.6-1.5,5.3c-0.4,1.4-0.8,2.8-1.2,4.3
		c-0.4,1.4-0.7,2.5-0.9,3.3c-0.1,0.2-0.3,0.4-0.7,0.6c-0.4,0.1-0.8,0.2-1.3,0.3c-0.5,0-0.9,0-1.4-0.1c-0.4-0.1-0.7-0.2-0.8-0.5
		c-0.2-0.5-0.5-1.2-0.9-2.1c-0.3-0.9-0.7-1.8-1-2.8c-0.4-1.1-0.8-2.2-1.2-3.5c-0.2,2.6-0.5,5.1-0.7,7.3c-0.1,1-0.2,2-0.3,2.9
		c-0.1,1-0.2,1.9-0.3,2.8c-0.1,0.9-0.1,1.7-0.2,2.5c-0.1,0.7-0.1,1.3-0.1,1.8c0,0.3-0.2,0.5-0.6,0.6c-0.4,0.1-0.8,0.2-1.3,0.1
		c-0.5,0-1.1-0.1-1.7-0.2c-0.6-0.1-1.2-0.3-1.7-0.6c-0.5-0.2-0.9-0.5-1.3-0.8S67.7,140,67.8,139.7z"/>
	<path class="st4" d="M99.2,116.9c0-0.2,0.2-0.3,0.5-0.4c0.3-0.1,0.7-0.2,1.2-0.2c0.5,0,1,0,1.6,0c0.6,0,1.1,0.1,1.5,0.2
		c0.5,0.1,0.9,0.2,1.2,0.3c0.3,0.1,0.5,0.3,0.5,0.4c0,0.2-0.1,0.7-0.2,1.7c-0.1,1-0.2,2.2-0.3,3.5c-0.1,1.4-0.2,2.9-0.4,4.5
		c-0.1,1.6-0.3,3.1-0.4,4.4c-0.1,1.4-0.2,2.5-0.3,3.5c-0.1,1-0.2,1.5-0.2,1.6c-0.1,0.2-0.3,0.3-0.8,0.4c-0.5,0.1-1,0.2-1.6,0.2
		c-0.6,0-1.1,0-1.6-0.1c-0.5-0.1-0.7-0.2-0.8-0.5c0-0.1,0-0.7,0-1.6c0-1,0-2.1,0-3.5c0-1.4,0-2.8,0-4.4c0-1.6,0-3.1,0-4.5
		c0-1.4,0-2.7,0-3.7C99.2,117.8,99.2,117.2,99.2,116.9z M105.4,111.1c0,0.6-0.1,1.1-0.2,1.6c-0.2,0.5-0.4,0.9-0.6,1.3
		c-0.3,0.4-0.6,0.7-1,0.9s-0.8,0.3-1.2,0.3c-0.4,0-0.8-0.1-1.1-0.4c-0.3-0.2-0.6-0.6-0.9-1c-0.2-0.4-0.4-0.9-0.6-1.4s-0.2-1-0.2-1.6
		s0.1-1.1,0.3-1.5c0.2-0.5,0.5-0.9,0.8-1.2c0.3-0.4,0.7-0.6,1.1-0.8c0.4-0.2,0.8-0.3,1.2-0.3c0.8,0,1.4,0.4,1.8,1.2
		C105.2,109,105.4,109.9,105.4,111.1z"/>
	<path class="st4" d="M109.4,120.2c0.6-0.1,1.2-0.2,1.9-0.1c0.7,0,1.3,0.1,1.8,0.3c0.6,0.2,0.8,0.2,0.8,0.3c0.1,1.7,0.2,3.5,0.3,5.7
		c0.1,2.1,0.1,4.3,0,6.5c-0.1,2.2-0.4,4.4-0.8,6.6c-0.4,2.1-1,4.1-1.9,5.8c-0.9,1.7-2.1,3.1-3.6,4.1c-1.5,1.1-3.4,1.6-5.6,1.7
		c-0.2,0-0.4-0.2-0.6-0.5c-0.2-0.3-0.4-0.7-0.6-1.2c-0.2-0.5-0.3-1.1-0.4-1.7c-0.1-0.6-0.2-1.2-0.3-1.7c0-0.5,0-0.9,0-1.3
		c0-0.3,0.2-0.5,0.3-0.5c1.6,0,2.8-0.5,3.8-1.5c1-1,1.8-2.3,2.3-3.9c0.6-1.6,1-3.3,1.2-5.2c0.2-1.9,0.3-3.7,0.4-5.3
		c0-1.7,0-3.2,0-4.4c-0.1-1.3-0.1-2.1,0-2.5C108.5,120.6,108.8,120.3,109.4,120.2z M113.6,111.9c-0.3-0.9-0.8-1.3-1.6-1.4
		c-0.4,0-0.8,0-1.2,0.2c-0.4,0.2-0.8,0.4-1.2,0.7c-0.4,0.3-0.7,0.7-0.9,1.2c-0.2,0.4-0.4,0.9-0.4,1.5c-0.1,0.6-0.1,1.1,0,1.6
		c0.1,0.5,0.2,1,0.4,1.4c0.2,0.4,0.5,0.8,0.8,1.1c0.3,0.3,0.7,0.5,1.1,0.5c0.4,0,0.8-0.1,1.2-0.3c0.4-0.2,0.7-0.5,1.1-0.8
		c0.3-0.4,0.6-0.8,0.8-1.2c0.2-0.5,0.3-1,0.4-1.5C114,113.8,113.9,112.8,113.6,111.9z"/>
	<path class="st4" d="M129.9,112.1c1.2,0,2.1,0.5,2.8,1.4c0.7,0.9,1.2,2.1,1.5,3.6c0.3,1.5,0.5,3.1,0.6,4.9c0.1,1.8,0.1,3.5,0,5.3
		c-0.1,1.7-0.1,3.3-0.2,4.7c-0.1,1.4-0.1,2.5-0.1,3.2c0,0.3-0.2,0.5-0.7,0.6c-0.5,0.1-1,0.2-1.6,0.2c-0.6,0-1.1,0-1.6-0.1
		c-0.5-0.1-0.8-0.2-0.8-0.4c-0.1-0.6-0.2-1.3-0.2-2.2c0-0.9-0.1-1.9-0.1-2.9c0-1-0.1-2.1-0.2-3.1c-0.1-1-0.2-2-0.3-2.8
		c-0.1-0.8-0.3-1.5-0.6-2.1c-0.2-0.5-0.6-0.8-0.9-0.9c-0.5,0-0.9,0.2-1.4,0.6c-0.4,0.4-0.8,1.1-1.2,1.8c-0.4,0.8-0.7,1.6-1,2.6
		c-0.3,1-0.6,1.9-0.8,2.9c-0.1,1.6-0.2,3-0.3,4.4c-0.1,1.4-0.1,2.6-0.2,3.6c0,0.3-0.3,0.6-0.8,0.7c-0.5,0.1-1.1,0.1-1.7,0.1
		c-0.6,0-1.2-0.1-1.8-0.3c-0.5-0.1-0.8-0.3-0.8-0.5c0-1.2,0-2.5,0-4c0-1.5,0-3,0-4.5c0-1.6,0-3.1,0-4.7c0-1.6,0-3.1,0-4.6
		c0-1.5,0-2.8,0-4.1c0-1.3,0-2.4,0-3.3c0-0.2,0.2-0.3,0.6-0.5c0.4-0.2,0.8-0.3,1.4-0.4c0.6-0.1,1.2-0.2,1.8-0.2c0.7,0,1.3-0.1,1.8,0
		c0.6,0,1,0.1,1.4,0.2s0.5,0.2,0.5,0.4c-0.1,0.6-0.2,1.3-0.3,2c-0.1,0.7-0.2,1.5-0.3,2.3c0.8-1.1,1.7-2,2.6-2.7
		C127.8,112.4,128.8,112.1,129.9,112.1z"/>
	<path class="st1" d="M158.9,116.7c1,0.1,1.9,0.4,2.6,1c0.7,0.6,1.3,1.3,1.7,2.3c0.4,0.9,0.7,2,0.8,3.3c0.1,1.3,0.1,2.7,0,4.2
		c-0.2,1.5-0.5,2.9-1,4c-0.5,1.1-1.2,2.1-1.9,2.8c-0.7,0.8-1.5,1.3-2.4,1.7c-0.8,0.4-1.7,0.5-2.5,0.4c-0.8-0.1-1.5-0.3-2.1-0.7
		c-0.6-0.4-1-0.9-1.4-1.5c-0.1,0.6-0.1,1.1-0.1,1.5c0,0.5-0.1,0.9-0.1,1.4c0,0.3-0.3,0.5-0.8,0.6c-0.5,0.1-1.1,0.1-1.7,0
		c-0.6-0.1-1.2-0.2-1.7-0.5c-0.5-0.2-0.7-0.5-0.7-0.8c0-0.9,0.1-2.1,0.1-3.7c0-1.6,0.1-3.3,0.1-5.1c0-1.9,0.1-3.8,0.1-5.9
		c0-2,0.1-4,0.1-5.9c0-1.9,0-3.6,0-5.1c0-1.5,0-2.7,0-3.6c0-0.3,0.2-0.5,0.5-0.7c0.3-0.2,0.7-0.3,1.2-0.3c0.5,0,1-0.1,1.6,0
		c0.6,0,1.1,0.1,1.6,0.3c0.5,0.1,0.9,0.3,1.2,0.5c0.3,0.2,0.5,0.4,0.5,0.7c-0.1,1.6-0.3,3.4-0.4,5.6c-0.2,2.1-0.3,4.4-0.5,6.8
		c0.6-1,1.4-1.8,2.3-2.4C156.9,116.8,157.9,116.6,158.9,116.7z M156.1,131.8c0.4,0,0.8-0.2,1.2-0.6c0.4-0.4,0.6-1,0.9-1.6
		c0.2-0.6,0.4-1.4,0.5-2.1s0.1-1.5,0-2.2c-0.1-0.7-0.2-1.2-0.5-1.7c-0.2-0.5-0.6-0.7-1-0.8c-0.3,0-0.6,0.2-0.9,0.6
		c-0.3,0.4-0.6,1-0.8,1.6c-0.2,0.7-0.4,1.4-0.5,2.2c-0.1,0.8-0.2,1.5-0.2,2.2c0,0.7,0.1,1.2,0.4,1.7
		C155.3,131.6,155.7,131.8,156.1,131.8z"/>
	<path class="st1" d="M168.2,102.1c0.1-0.5,0.4-0.8,0.9-1c0.5-0.2,1.1-0.4,1.8-0.4c0.7-0.1,1.4-0.1,2.1,0c0.7,0.1,1.4,0.2,2,0.4
		c0.6,0.2,1.1,0.4,1.5,0.7c0.4,0.3,0.6,0.6,0.5,0.9c0,0.2-0.2,0.6-0.4,1.4c-0.2,0.8-0.5,1.8-0.9,3c-0.3,1.2-0.7,2.6-1.1,4.1
		c-0.4,1.6-0.7,3.2-1,4.9c-0.3,1.7-0.5,3.5-0.6,5.2c-0.1,1.8-0.1,3.5,0,5.1c0.1,1.6,0.4,3.2,0.9,4.6c0.5,1.4,1.2,2.6,2.1,3.6
		c0.2,0.2,0.2,0.6-0.1,0.9c-0.3,0.4-0.6,0.8-1.1,1.1c-0.4,0.4-0.9,0.6-1.4,0.9s-0.8,0.3-1,0.2c-1.1-0.7-2.1-1.7-2.8-3.1
		c-0.8-1.3-1.3-2.9-1.8-4.6c-0.4-1.7-0.7-3.6-0.9-5.6c-0.2-2-0.3-4-0.3-6c0-2,0.1-3.9,0.2-5.8c0.1-1.9,0.3-3.6,0.4-5
		c0.2-1.5,0.3-2.7,0.5-3.7C168,102.9,168.1,102.3,168.2,102.1z"/>
	<path class="st1" d="M193.7,119c0,0.6,0,1.3,0,2.1c0,0.9-0.1,1.8-0.1,2.9c0,1.1-0.1,2.2-0.2,3.3c-0.1,1.2-0.2,2.3-0.3,3.4
		c-0.1,1.1-0.2,2.2-0.3,3.2c-0.1,1-0.2,1.9-0.2,2.7c0,0.3-0.3,0.6-0.8,0.7c-0.5,0.2-1,0.2-1.6,0.2s-1.1-0.1-1.6-0.2
		c-0.5-0.1-0.7-0.3-0.7-0.6c0-0.9,0-2,0.1-3.4c-0.3,0.6-0.7,1.1-1.1,1.6c-0.4,0.5-0.8,1-1.3,1.3s-1,0.6-1.5,0.8
		c-0.5,0.2-1.1,0.2-1.6,0.1c-0.9-0.2-1.6-0.5-2.1-1c-0.6-0.5-1-1.2-1.2-2c-0.3-0.8-0.4-1.8-0.4-2.8c0-1.1,0.1-2.2,0.3-3.4
		c0.2-1.2,0.6-2.3,1.1-3.2c0.5-0.9,1.1-1.7,1.8-2.2c0.7-0.6,1.4-1,2.1-1.2c0.7-0.2,1.4-0.3,2.1-0.1c0.8,0.1,1.5,0.5,2,1.1
		c-0.1-0.8-0.3-1.5-0.6-2.1c-0.3-0.5-0.7-0.9-1.3-1.1c-0.6-0.2-1.3-0.2-2.2,0c-0.9,0.2-2,0.6-3.3,1.2c-0.3,0.2-0.6,0-0.9-0.5
		c-0.2-0.5-0.4-1-0.5-1.7c-0.1-0.7-0.1-1.3,0-1.9c0.1-0.6,0.3-1,0.6-1.2c0.4-0.2,0.8-0.4,1.2-0.6c0.4-0.2,0.9-0.4,1.4-0.6
		c0.5-0.2,1.1-0.3,1.8-0.5c0.7-0.1,1.5-0.2,2.6-0.3c1,0,1.9,0.1,2.8,0.4c0.8,0.3,1.5,0.7,2.1,1.2c0.6,0.5,1.1,1.2,1.4,1.9
		C193.6,117.5,193.7,118.2,193.7,119z M184.4,132.4c0.2,0.1,0.5-0.1,0.8-0.4c0.3-0.3,0.6-0.8,0.8-1.3c0.2-0.5,0.4-1.1,0.6-1.8
		c0.2-0.6,0.2-1.2,0.3-1.8c0-0.6,0-1-0.2-1.4c-0.2-0.4-0.4-0.6-0.8-0.7c-0.4,0-0.7,0.1-1,0.4c-0.3,0.3-0.6,0.7-0.8,1.3
		c-0.2,0.5-0.4,1.1-0.6,1.7c-0.1,0.6-0.2,1.2-0.2,1.8c0,0.6,0.1,1,0.3,1.4C183.8,132.1,184.1,132.3,184.4,132.4z"/>
	<path class="st1" d="M212.6,108.6c0.2,0.1,0.3,0.5,0.2,1.2c-0.1,0.7-0.2,1.5-0.4,2.3c-0.2,0.8-0.5,1.5-0.7,2.1
		c-0.3,0.6-0.5,0.9-0.7,0.8c-1-0.4-1.8-0.6-2.5-0.5c-0.7,0.1-1.4,0.5-1.9,1c-0.5,0.6-1,1.3-1.4,2.2c-0.4,0.9-0.7,1.9-0.9,3.1
		c0.6-0.1,1.2-0.1,1.7-0.1c0.5,0,0.8,0,1,0c0.2,0,0.4,0.2,0.5,0.7c0.2,0.5,0.3,1,0.3,1.5c0,0.6,0,1.1,0,1.6
		c-0.1,0.5-0.2,0.7-0.4,0.8c-0.2,0-0.7,0.1-1.3,0.1c-0.7,0-1.4,0.1-2.3,0.1c-0.1,1.3-0.1,2.5-0.1,3.8c0,1.3,0,2.5,0.1,3.7
		c0,1.2,0.1,2.3,0.2,3.3c0.1,1,0.2,1.9,0.3,2.6c0,0.3-0.2,0.5-0.6,0.5c-0.4,0.1-0.9,0.1-1.5,0c-0.6-0.1-1.1-0.2-1.6-0.4
		c-0.5-0.2-0.8-0.4-0.9-0.7c-0.2-0.6-0.4-1.3-0.6-2.2c-0.2-0.9-0.3-1.9-0.5-3c-0.1-1.1-0.2-2.3-0.3-3.6c-0.1-1.3-0.1-2.6,0-4
		c-0.6,0-1,0-1.4,0c-0.4,0-0.6,0-0.7,0c-0.1,0-0.2-0.2-0.3-0.6c-0.1-0.4-0.1-0.8-0.1-1.2c0-0.4,0-0.9,0.1-1.2
		c0.1-0.4,0.2-0.6,0.3-0.6c0.2-0.1,0.5-0.1,0.9-0.2c0.4,0,0.9-0.1,1.4-0.2c0.2-2.3,0.6-4.5,1.2-6.6c0.6-2.1,1.5-3.8,2.6-5.1
		c1.1-1.3,2.5-2.2,4.2-2.5C208.1,106.9,210.2,107.4,212.6,108.6z"/>
	<path class="st1" d="M226.4,117.9c0,0.7,0.1,1.8,0.1,3c0,1.3,0.1,2.7,0.1,4.3c0,1.6,0,3.3,0,5.1c-0.1,1.8-0.2,3.6-0.4,5.4
		c-0.2,1.8-0.5,3.5-1,5.2c-0.4,1.7-1,3.2-1.7,4.6c-0.7,1.4-1.6,2.5-2.6,3.5c-1,0.9-2.3,1.5-3.7,1.8c-0.2,0-0.5-0.1-1-0.4
		c-0.4-0.3-0.9-0.7-1.4-1.2c-0.5-0.5-1-1-1.5-1.6c-0.5-0.6-0.9-1.1-1.2-1.7c-0.3-0.5-0.5-1-0.5-1.3c0-0.4,0.2-0.6,0.6-0.6
		c1.5-0.1,2.7-0.4,3.8-1c1.1-0.6,2-1.3,2.7-2.2c0.7-0.9,1.3-1.9,1.8-3.1c0.4-1.2,0.8-2.4,1-3.7c-0.4,0.7-0.9,1.2-1.5,1.7
		c-0.6,0.5-1.3,0.7-2,0.8c-1,0.1-2-0.1-2.8-0.5s-1.5-1-2.1-1.9c-0.6-0.8-1.1-1.9-1.4-3.1c-0.4-1.2-0.6-2.6-0.8-4.1
		c-0.2-1.5-0.1-2.9,0.2-4.1c0.3-1.2,0.8-2.3,1.3-3.2c0.6-0.9,1.3-1.6,2-2.1c0.8-0.5,1.6-0.8,2.4-0.9c1.2-0.1,2.1,0.1,2.9,0.8
		s1.5,1.5,2,2.4c0-0.5-0.1-0.9-0.1-1.3c0-0.4,0-0.8,0-1.2c0-0.3,0.2-0.5,0.7-0.6c0.5-0.1,1-0.1,1.6-0.1c0.6,0,1.1,0.2,1.6,0.3
		C226.2,117.4,226.4,117.6,226.4,117.9z M218.6,130.3c0.3,0,0.6-0.3,0.8-0.8c0.2-0.5,0.4-1.1,0.5-1.8c0.1-0.7,0.2-1.4,0.1-2.2
		c0-0.8-0.1-1.5-0.3-2.2c-0.2-0.7-0.4-1.2-0.7-1.6c-0.3-0.4-0.7-0.6-1.2-0.5c-0.4,0.1-0.8,0.3-1,0.8c-0.3,0.5-0.4,1.1-0.5,1.8
		c-0.1,0.7-0.1,1.4,0,2.2c0.1,0.8,0.2,1.5,0.4,2.1c0.2,0.6,0.4,1.2,0.8,1.6C217.8,130.2,218.1,130.3,218.6,130.3z"/>
	<path class="st1" d="M244.2,120.2c0.3,0.9,0.5,1.7,0.5,2.6c0,0.9-0.1,1.7-0.2,2.4c-0.2,0.9-0.4,1.7-0.6,2.5l-7.3,1.9
		c0.2,0.6,0.5,1.2,0.8,1.7c0.3,0.5,0.8,0.9,1.2,1.2c0.5,0.3,1.1,0.5,1.7,0.5c0.6,0,1.4-0.1,2.2-0.4c0.2-0.1,0.4,0,0.6,0.3
		c0.2,0.2,0.3,0.6,0.5,0.9c0.1,0.4,0.2,0.7,0.2,1.1c0,0.3-0.1,0.6-0.2,0.7c-1.7,1.2-3.3,1.8-4.9,2s-3.1,0-4.4-0.6
		c-1.3-0.6-2.4-1.4-3.2-2.6c-0.9-1.2-1.4-2.5-1.5-4.1c-0.2-1.9,0-3.7,0.5-5.4c0.5-1.7,1.2-3.2,2.1-4.5c0.9-1.3,1.9-2.3,3-3.1
		c1.2-0.8,2.3-1.3,3.4-1.4c1.1-0.1,2.2,0.2,3.2,0.8C242.8,117.5,243.6,118.6,244.2,120.2z M240.5,125c0.2-0.8,0.3-1.6,0.3-2.3
		c0-0.6-0.1-1.1-0.3-1.5c-0.2-0.5-0.5-0.7-1-0.6c-0.5,0.1-0.9,0.3-1.3,0.6c-0.4,0.3-0.7,0.7-1,1.2s-0.5,1.1-0.7,1.8
		c-0.2,0.7-0.3,1.3-0.3,2L240.5,125z"/>
	<path class="st1" d="M257.4,107.4c0-0.3,0.2-0.5,0.5-0.7c0.3-0.2,0.7-0.3,1.2-0.4c0.5-0.1,1-0.2,1.6-0.2c0.6,0,1.1,0,1.6,0.1
		c0.5,0.1,0.9,0.2,1.2,0.4c0.3,0.2,0.5,0.4,0.4,0.7c-0.1,0.9-0.1,2.1-0.2,3.7c-0.1,1.6-0.1,3.3-0.2,5.1c-0.1,1.9-0.1,3.8-0.2,5.9
		c-0.1,2-0.1,4-0.2,5.9c0,1.9-0.1,3.6-0.1,5.1c0,1.6,0,2.8,0,3.7c0,0.3-0.3,0.6-0.8,0.8c-0.5,0.2-1.1,0.3-1.7,0.4
		c-0.6,0-1.2,0-1.7-0.1s-0.8-0.3-0.8-0.6c0-0.6,0-1.4,0-2.2c0-0.8,0-1.7-0.1-2.7c-0.3,0.7-0.7,1.5-1.2,2.1c-0.4,0.7-1,1.3-1.5,1.8
		c-0.6,0.5-1.2,0.8-1.9,1.1c-0.7,0.2-1.4,0.2-2.3,0c-0.8-0.2-1.5-0.6-2.2-1.2c-0.7-0.6-1.3-1.4-1.7-2.4c-0.4-1-0.7-2.1-0.8-3.3
		c-0.1-1.3,0-2.6,0.4-4.1s0.8-2.8,1.4-4c0.5-1.2,1.2-2.1,1.8-2.9c0.7-0.8,1.5-1.3,2.3-1.6c0.9-0.3,1.8-0.3,2.8-0.1
		c0.5,0.2,1,0.4,1.4,0.7c0.4,0.3,0.8,0.7,1.1,1.1c-0.1-2.3-0.1-4.5-0.2-6.6C257.5,110.7,257.4,108.9,257.4,107.4z M252.8,132.9
		c0.4,0.2,0.8,0,1.2-0.3s0.7-0.9,0.9-1.5c0.2-0.6,0.4-1.3,0.6-2.1s0.2-1.5,0.2-2.2c0-0.7-0.1-1.3-0.2-1.8c-0.2-0.5-0.4-0.8-0.7-0.9
		c-0.4-0.1-0.8,0-1.2,0.4c-0.4,0.4-0.7,0.8-1,1.5c-0.3,0.6-0.5,1.3-0.7,2.1c-0.2,0.8-0.3,1.5-0.3,2.2c0,0.7,0.1,1.3,0.3,1.8
		C252.1,132.5,252.4,132.8,252.8,132.9z"/>
	<path class="st1" d="M282.4,108.3c0.2,0,0.4,0.2,0.6,0.5c0.2,0.3,0.3,0.7,0.4,1.2c0.1,0.5,0.2,1,0.3,1.5c0,0.6,0.1,1.1,0.1,1.5
		c0,0.5,0,0.9-0.1,1.2c-0.1,0.3-0.2,0.5-0.3,0.5c-1.1,0-2.2,0.4-3.3,1.1c-1.1,0.7-2.1,1.6-3.1,2.8c-0.9,1.2-1.8,2.5-2.4,4.1
		c-0.7,1.5-1.2,3.1-1.5,4.8c-0.1,1.8-0.1,3.5-0.2,5.1c-0.1,1.6-0.1,3.1-0.1,4.4c0,0.3-0.3,0.5-0.8,0.6c-0.5,0.1-1.1,0.1-1.8,0.1
		c-0.6-0.1-1.2-0.2-1.8-0.4c-0.5-0.2-0.8-0.5-0.8-0.8c0-0.9,0-2.1,0-3.4c0-1.4-0.1-2.8-0.1-4.4c0-1.6-0.1-3.2-0.1-4.9
		c-0.1-1.7-0.1-3.3-0.2-4.9c-0.1-1.6-0.1-3.1-0.2-4.4c-0.1-1.4-0.1-2.5-0.2-3.4c0-0.3,0.1-0.5,0.5-0.7c0.3-0.2,0.8-0.3,1.3-0.4
		c0.5-0.1,1.1-0.1,1.7-0.1c0.6,0,1.2,0.1,1.7,0.2c0.5,0.1,0.9,0.3,1.3,0.5c0.3,0.2,0.5,0.4,0.5,0.7c-0.1,1.4-0.1,2.8-0.1,4.3
		c0.4-0.7,0.9-1.5,1.5-2.3c0.6-0.8,1.2-1.6,2-2.3c0.8-0.7,1.6-1.3,2.5-1.8C280.3,108.6,281.3,108.3,282.4,108.3z"/>
	<path class="st1" d="M300.7,119c0,0.6,0,1.3,0,2.1c0,0.9-0.1,1.8-0.1,2.9c0,1.1-0.1,2.2-0.2,3.3c-0.1,1.2-0.2,2.3-0.3,3.4
		c-0.1,1.1-0.2,2.2-0.3,3.2c-0.1,1-0.2,1.9-0.2,2.7c0,0.3-0.3,0.6-0.8,0.7c-0.5,0.2-1,0.2-1.6,0.2s-1.1-0.1-1.6-0.2
		c-0.5-0.1-0.7-0.3-0.7-0.6c0-0.9,0-2,0.1-3.4c-0.3,0.6-0.7,1.1-1.1,1.6c-0.4,0.5-0.8,1-1.3,1.3s-1,0.6-1.5,0.8
		c-0.5,0.2-1.1,0.2-1.6,0.1c-0.9-0.2-1.6-0.5-2.1-1c-0.6-0.5-1-1.2-1.2-2c-0.3-0.8-0.4-1.8-0.4-2.8c0-1.1,0.1-2.2,0.3-3.4
		c0.2-1.2,0.6-2.3,1.1-3.2c0.5-0.9,1.1-1.7,1.8-2.2c0.7-0.6,1.4-1,2.1-1.2c0.7-0.2,1.4-0.3,2.1-0.1c0.8,0.1,1.5,0.5,2,1.1
		c-0.1-0.8-0.3-1.5-0.6-2.1c-0.3-0.5-0.7-0.9-1.3-1.1c-0.6-0.2-1.3-0.2-2.2,0c-0.9,0.2-2,0.6-3.3,1.2c-0.3,0.2-0.6,0-0.9-0.5
		c-0.2-0.5-0.4-1-0.5-1.7c-0.1-0.7-0.1-1.3,0-1.9c0.1-0.6,0.3-1,0.6-1.2c0.4-0.2,0.8-0.4,1.2-0.6c0.4-0.2,0.9-0.4,1.4-0.6
		c0.5-0.2,1.1-0.3,1.8-0.5c0.7-0.1,1.5-0.2,2.6-0.3c1,0,1.9,0.1,2.8,0.4c0.8,0.3,1.5,0.7,2.1,1.2c0.6,0.5,1.1,1.2,1.4,1.9
		C300.6,117.5,300.7,118.2,300.7,119z M291.4,132.4c0.2,0.1,0.5-0.1,0.8-0.4c0.3-0.3,0.6-0.8,0.8-1.3c0.2-0.5,0.4-1.1,0.6-1.8
		c0.2-0.6,0.2-1.2,0.3-1.8c0-0.6,0-1-0.2-1.4c-0.2-0.4-0.4-0.6-0.8-0.7c-0.4,0-0.7,0.1-1,0.4c-0.3,0.3-0.6,0.7-0.8,1.3
		c-0.2,0.5-0.4,1.1-0.6,1.7c-0.1,0.6-0.2,1.2-0.2,1.8c0,0.6,0.1,1,0.3,1.4C290.8,132.1,291,132.3,291.4,132.4z"/>
	<path class="st1" d="M318.3,117.9c0,0.7,0.1,1.8,0.1,3c0,1.3,0.1,2.7,0.1,4.3c0,1.6,0,3.3,0,5.1c-0.1,1.8-0.2,3.6-0.4,5.4
		c-0.2,1.8-0.5,3.5-1,5.2c-0.4,1.7-1,3.2-1.7,4.6c-0.7,1.4-1.6,2.5-2.6,3.5c-1,0.9-2.3,1.5-3.7,1.8c-0.2,0-0.5-0.1-1-0.4
		c-0.4-0.3-0.9-0.7-1.4-1.2c-0.5-0.5-1-1-1.5-1.6c-0.5-0.6-0.9-1.1-1.2-1.7c-0.3-0.5-0.5-1-0.5-1.3c0-0.4,0.2-0.6,0.6-0.6
		c1.5-0.1,2.7-0.4,3.8-1c1.1-0.6,2-1.3,2.7-2.2c0.7-0.9,1.3-1.9,1.8-3.1c0.4-1.2,0.8-2.4,1-3.7c-0.4,0.7-0.9,1.2-1.5,1.7
		c-0.6,0.5-1.3,0.7-2,0.8c-1,0.1-2-0.1-2.8-0.5s-1.5-1-2.1-1.9c-0.6-0.8-1.1-1.9-1.4-3.1c-0.4-1.2-0.6-2.6-0.8-4.1
		c-0.2-1.5-0.1-2.9,0.2-4.1c0.3-1.2,0.8-2.3,1.3-3.2c0.6-0.9,1.3-1.6,2-2.1c0.8-0.5,1.6-0.8,2.4-0.9c1.2-0.1,2.1,0.1,2.9,0.8
		s1.5,1.5,2,2.4c0-0.5-0.1-0.9-0.1-1.3c0-0.4,0-0.8,0-1.2c0-0.3,0.2-0.5,0.7-0.6c0.5-0.1,1-0.1,1.6-0.1c0.6,0,1.1,0.2,1.6,0.3
		C318,117.4,318.3,117.6,318.3,117.9z M310.4,130.3c0.3,0,0.6-0.3,0.8-0.8c0.2-0.5,0.4-1.1,0.5-1.8c0.1-0.7,0.2-1.4,0.1-2.2
		c0-0.8-0.1-1.5-0.3-2.2c-0.2-0.7-0.4-1.2-0.7-1.6c-0.3-0.4-0.7-0.6-1.2-0.5c-0.4,0.1-0.8,0.3-1,0.8c-0.3,0.5-0.4,1.1-0.5,1.8
		c-0.1,0.7-0.1,1.4,0,2.2c0.1,0.8,0.2,1.5,0.4,2.1c0.2,0.6,0.4,1.2,0.8,1.6C309.6,130.2,310,130.3,310.4,130.3z"/>
</g>
<g>
	<path d="M417.9,105.2c0-0.2,0.1-0.4,0.3-0.5c0.2-0.1,0.5-0.2,0.9-0.3c0.3-0.1,0.7-0.1,1.1-0.1c0.4,0,0.8,0,1.1,0.1
		c0.3,0.1,0.6,0.2,0.9,0.3c0.2,0.1,0.3,0.3,0.3,0.5c-0.2,1.2-0.3,2.6-0.5,4.2c-0.1,1.6-0.3,3.2-0.4,4.8c-0.1,1.6-0.2,3.2-0.3,4.8
		c-0.1,1.6-0.1,2.9-0.1,4.1c0,0.2-0.1,0.4-0.3,0.5c-0.2,0.2-0.5,0.3-0.8,0.4c-0.3,0.1-0.7,0.2-1,0.3s-0.7,0.1-1.1,0.1
		c-0.3,0-0.6,0-0.9-0.1c-0.3-0.1-0.4-0.2-0.5-0.3c-0.5-0.8-1-1.6-1.5-2.6c-0.5-0.9-1.1-1.8-1.6-2.8c-0.1,1.2-0.1,2.4-0.2,3.6
		c-0.1,1.1-0.2,2.2-0.3,3.2c0,0.3-0.3,0.5-0.7,0.7c-0.4,0.2-0.9,0.4-1.5,0.5c-0.5,0.1-1,0.1-1.5,0.1c-0.5,0-0.8-0.2-0.9-0.4
		c-0.5-1.1-1.1-2.4-1.8-3.9c-0.7-1.5-1.5-3-2.2-4.6c-0.8-1.6-1.6-3.1-2.3-4.6c-0.8-1.5-1.5-2.8-2.1-3.9c-0.1-0.2,0-0.4,0.1-0.6
		c0.2-0.3,0.4-0.5,0.7-0.8c0.3-0.3,0.7-0.6,1-0.8c0.4-0.3,0.8-0.5,1.1-0.6c0.4-0.2,0.7-0.3,0.9-0.3c0.3,0,0.4,0.1,0.5,0.2
		c0.2,0.5,0.3,1.1,0.6,1.8c0.2,0.7,0.5,1.4,0.8,2.2c0.3,0.8,0.6,1.6,0.9,2.4c0.3,0.8,0.6,1.6,0.9,2.4c0.7,1.9,1.5,3.8,2.3,5.8
		c0.2-1.1,0.4-2.3,0.4-3.4c0.1-1,0.1-2,0-3.1c-0.1-1.1-0.3-2.1-0.6-3.1l-0.5-1.1c-0.1-0.1-0.1-0.2,0-0.3c0-0.2,0.2-0.4,0.4-0.7
		c0.2-0.2,0.5-0.5,0.8-0.7c0.3-0.2,0.6-0.4,1-0.6s0.7-0.3,1-0.4c0.3-0.1,0.6-0.1,0.8-0.1c0.2,0,0.4,0.1,0.4,0.3
		c0.1,0.4,0.3,0.9,0.4,1.4c0.2,0.5,0.4,1.1,0.6,1.7c0.2,0.6,0.4,1.2,0.7,1.8c0.2,0.6,0.5,1.2,0.7,1.8c0.5,1.4,1.1,2.8,1.8,4.3
		c0.1-1.8,0.1-3.6,0.2-5.3c0-0.7,0-1.5,0-2.2c0-0.8,0-1.5,0-2.3c0-0.7,0-1.4,0-2.1C418,106.3,418,105.7,417.9,105.2z"/>
	<path d="M430.5,100.8c1.1-0.2,2.1-0.1,3,0.3c0.9,0.5,1.6,1.1,2.1,2c0.6,0.9,1,2,1.3,3.2c0.3,1.2,0.5,2.5,0.5,3.8
		c0.1,1.3,0,2.6-0.2,4c-0.2,1.3-0.5,2.5-0.9,3.6c-0.4,1.1-0.9,2-1.5,2.7c-0.6,0.7-1.3,1.1-2.2,1.3c-1.1,0.2-2.1,0-3-0.5
		c-0.9-0.5-1.7-1.1-2.3-2c-0.7-0.9-1.2-1.9-1.7-3.1c-0.4-1.2-0.7-2.4-0.9-3.7s-0.2-2.6-0.1-3.8c0.1-1.3,0.4-2.5,0.9-3.5
		c0.5-1.1,1.1-2,1.9-2.7C428.4,101.6,429.4,101.1,430.5,100.8z M432.1,117c0.7-0.1,1.2-0.5,1.6-1.2c0.4-0.7,0.7-1.5,0.8-2.5
		c0.2-0.9,0.2-1.9,0.2-3c-0.1-1.1-0.2-2-0.4-2.9s-0.5-1.6-0.9-2.1c-0.4-0.5-0.8-0.8-1.3-0.7c-0.8,0.2-1.4,0.6-1.8,1.3
		c-0.4,0.7-0.7,1.5-0.8,2.5c-0.1,0.9-0.2,1.9-0.1,3c0.1,1.1,0.3,2,0.5,2.9c0.3,0.9,0.6,1.6,1,2.1C431.3,116.9,431.7,117.1,432.1,117
		z"/>
	<path d="M444.9,98c1.1-0.2,2.1-0.1,3,0.3c0.9,0.5,1.6,1.1,2.1,2c0.6,0.9,1,2,1.3,3.2c0.3,1.2,0.5,2.5,0.5,3.8c0.1,1.3,0,2.6-0.2,4
		c-0.2,1.3-0.5,2.5-0.9,3.6c-0.4,1.1-0.9,2-1.5,2.7c-0.6,0.7-1.3,1.1-2.2,1.3c-1.1,0.2-2.1,0-3-0.5c-0.9-0.5-1.7-1.1-2.3-2
		c-0.7-0.9-1.2-1.9-1.7-3.1c-0.4-1.2-0.7-2.4-0.9-3.7s-0.2-2.6-0.1-3.8c0.1-1.3,0.4-2.5,0.9-3.5c0.5-1.1,1.1-2,1.9-2.7
		C442.7,98.7,443.7,98.3,444.9,98z M446.5,114.2c0.7-0.1,1.2-0.5,1.6-1.2c0.4-0.7,0.7-1.5,0.8-2.5c0.2-0.9,0.2-1.9,0.2-3
		c-0.1-1.1-0.2-2-0.4-2.9s-0.5-1.6-0.9-2.1c-0.4-0.5-0.8-0.8-1.3-0.7c-0.8,0.1-1.4,0.6-1.8,1.3c-0.4,0.7-0.7,1.5-0.8,2.5
		c-0.1,0.9-0.2,1.9-0.1,3c0.1,1.1,0.3,2,0.5,2.9c0.3,0.9,0.6,1.6,1,2.1C445.6,114,446,114.3,446.5,114.2z"/>
	<path d="M465,95.2c0.1,0.1,0.2,0.3,0.3,0.7c0.1,0.4,0.1,0.8,0.1,1.2c0,0.4,0,0.8,0,1.2c0,0.4-0.1,0.6-0.2,0.6c0,0-0.2,0.1-0.5,0.2
		s-0.7,0.3-1.2,0.5c-0.5,0.2-1.1,0.4-1.7,0.6c-0.6,0.2-1.3,0.5-2,0.7c0.1,0.7,0.2,1.4,0.3,2.3c0.1,0.8,0.2,1.7,0.4,2.6
		c0.4-0.1,0.8-0.1,1.2-0.2c0.4-0.1,0.8-0.1,1.2-0.2c0.4-0.1,0.7-0.1,1-0.1c0.3,0,0.4,0,0.5,0c0.1,0,0.2,0.2,0.2,0.4
		c0.1,0.3,0.1,0.5,0.2,0.9c0,0.3,0.1,0.6,0.1,0.9c0,0.3,0,0.5,0,0.5c0,0-0.1,0.1-0.4,0.2c-0.3,0.1-0.6,0.2-1,0.3
		c-0.4,0.1-0.8,0.2-1.3,0.3c-0.5,0.1-0.9,0.2-1.3,0.3c0.1,0.8,0.2,1.5,0.3,2.3c0.1,0.7,0.2,1.3,0.3,1.9c0.1,0.6,0.2,1,0.2,1.4
		c0.1,0.4,0.1,0.6,0.1,0.7c0,0.1-0.1,0.3-0.2,0.6c-0.2,0.3-0.4,0.5-0.6,0.8s-0.5,0.5-0.8,0.6c-0.3,0.2-0.5,0.2-0.6,0
		c0,0-0.1-0.3-0.3-0.8c-0.2-0.5-0.4-1.2-0.6-2c-0.2-0.8-0.5-1.8-0.8-2.8c-0.3-1.1-0.6-2.1-0.9-3.2c-0.3-1.1-0.6-2.2-0.8-3.2
		c-0.3-1.1-0.5-2-0.7-2.8c-0.3,0.1-0.6,0.2-0.9,0.3c-0.3,0.1-0.5,0.2-0.7,0.3c-0.2,0.1-0.4,0.1-0.6,0.2c-0.1,0-0.3-0.2-0.4-0.5
		c-0.2-0.3-0.3-0.6-0.4-0.9c-0.1-0.3-0.2-0.7-0.3-1s-0.1-0.5,0-0.6c0-0.1,0.3-0.3,0.9-0.6c0.6-0.3,1.4-0.6,2.3-1
		c0.9-0.4,1.9-0.8,3-1.3c1.1-0.4,2.1-0.8,3-1.2c0.9-0.4,1.7-0.6,2.4-0.8C464.5,95.2,464.9,95.1,465,95.2z"/>
</g>
<path class="st0" d="M451.2,127.7c2.7,5.3,6.6,10.1,11.2,13.8"/>
<path class="st0" d="M470.3,123.5c4.6,0.8,9.3,1.7,13.9,2.5"/>
<path class="st0" d="M476.3,109.7c3.3,0,6.7,0,10,0"/>
<path class="st0" d="M473.3,95.7c4-2.4,8-4.7,11.9-7.1"/>
<path class="st0" d="M460.4,87.1c3.7-1.1,5.9-5.7,4.6-9.3"/>
<path class="st0" d="M445,92.1c-4.9-4.1-9.3-8.9-12.9-14.3"/>
<path class="st0" d="M429.1,93.3c-6-2.4-11.6-5.7-16.5-9.9"/>
<path class="st0" d="M404.5,97.4c-2.8-2-5.9-3.6-9.2-4.6"/>
<path class="st0" d="M389.3,106.6c-3.7,0.5-7.5,0.2-11-0.9"/>
<path class="st0" d="M392.5,118.1c-5.8-1.8-12.1-2.2-18.2-1.2"/>
<path class="st0" d="M398.4,127.2c-4.2,1.1-7.9,4.3-9.4,8.4"/>
<path class="st0" d="M410.6,133.5c0.9,1.9,0.8,4.3-0.4,6.1"/>
<path class="st0" d="M430.8,129.5c1.5,4.2,2.3,8.7,2.4,13.2"/>
<g>
	<path class="st7" d="M610.4,79.6c11.8,1.4,23.6,2.8,35.4,4.2c24.6,2.9,50,5.7,73.7-1.3c2-0.6,4.1-1.2,5.9-0.2
		c2.3,1.3,2.6,4.8,1.2,7.1c-1.4,2.3-4,3.5-6.4,4.6c-12.2,5.2-24.2,6.3-37.1,8.1c-12.9,1.7-17.8,10.6-8.4,20.6
		c-11.5,2.2-22.7,3.8-33.7,8.2"/>
	<path class="st7" d="M681.4,97.7c-1.7,7.2-2.4,14.6-2.1,22"/>
	<path class="st7" d="M693.3,95.7c0,6,0,12,0,18"/>
</g>
</svg>
